<svg xmlns="http://www.w3.org/2000/svg" viewBox="0 0 426.7 512"><defs><style>.cls-1{fill:#ff3547;}</style></defs><title>2fa_1</title><g id="Layer_2" data-name="Layer 2"><g id="Capa_1" data-name="Capa 1"><path class="cls-1" d="M403.51,54.8,218.51.72l-.39-.1a18.59,18.59,0,0,0-9.54,0l-.19.05L23.19,54.8A31.44,31.44,0,0,0,0,85.12V348.9a91.22,91.22,0,0,0,49.92,81.61l121.14,71.21.85.45a92.26,92.26,0,0,0,82.88,0l.43-.21,121.56-71.45A91.2,91.2,0,0,0,426.7,348.9V85.12A31.44,31.44,0,0,0,403.51,54.8ZM396.7,348.9h0A61.37,61.37,0,0,1,362.82,404l-.43.21L240.87,475.6a62.26,62.26,0,0,1-55,0L64.73,404.42l-.85-.46A61.37,61.37,0,0,1,30,348.9V85.12a1.42,1.42,0,0,1,1.06-1.37L213.35,30.47,395.26,83.64l.38.11a1.42,1.42,0,0,1,1.06,1.37V348.9Z"/><path class="cls-1" d="M263.38,141.19h-6.87V117a46.46,46.46,0,0,0-92.91,0v24.21h-6.88a9.84,9.84,0,0,0-9.84,9.84v80.26a9.85,9.85,0,0,0,9.84,9.85H263.38a9.85,9.85,0,0,0,9.84-9.85V151A9.84,9.84,0,0,0,263.38,141.19Zm-42.85,70.49H199.58l3.75-17.87a12.57,12.57,0,1,1,13.45,0Zm19.4-70.49H180.17V117a29.88,29.88,0,1,1,59.76,0Z"/><path class="cls-1" d="M158,365.69a28.5,28.5,0,0,1-.17,3.46,10.51,10.51,0,0,1-.52,2.34,2.78,2.78,0,0,1-.91,1.29,2.2,2.2,0,0,1-1.26.38H103.26a10.91,10.91,0,0,1-2.66-.28,3.36,3.36,0,0,1-1.81-1.08,5,5,0,0,1-1-2.34,20.38,20.38,0,0,1-.32-4,31.61,31.61,0,0,1,.21-3.94,10.93,10.93,0,0,1,.77-2.93,13.46,13.46,0,0,1,1.43-2.51,25,25,0,0,1,2.27-2.69l15.63-16.75a82.31,82.31,0,0,0,7.54-8.9,51.26,51.26,0,0,0,4.47-7.33,27.39,27.39,0,0,0,2.2-6.1,26,26,0,0,0,.59-5.31,12.87,12.87,0,0,0-.73-4.36,10.3,10.3,0,0,0-2.17-3.6,9.85,9.85,0,0,0-3.59-2.4,13.6,13.6,0,0,0-5.1-.88,23.23,23.23,0,0,0-7.29,1.05,35,35,0,0,0-5.58,2.34q-2.42,1.29-4,2.37a5.09,5.09,0,0,1-2.51,1.08,1.56,1.56,0,0,1-1.08-.41,3,3,0,0,1-.73-1.4,15.86,15.86,0,0,1-.46-2.62c-.11-1.09-.17-2.43-.17-4,0-1.07,0-2,.1-2.69a12,12,0,0,1,.32-1.88,5.25,5.25,0,0,1,.56-1.4,7.43,7.43,0,0,1,1.22-1.43,16.39,16.39,0,0,1,3.21-2.13,39.3,39.3,0,0,1,5.76-2.51,56,56,0,0,1,7.53-2.06,42.93,42.93,0,0,1,8.59-.84A38.76,38.76,0,0,1,138.75,283a24.51,24.51,0,0,1,8.76,5,20.07,20.07,0,0,1,5.2,7.54,25.42,25.42,0,0,1,1.71,9.38,44.61,44.61,0,0,1-.84,8.66,33.15,33.15,0,0,1-3.49,9.18,72.59,72.59,0,0,1-7.47,10.88,175.34,175.34,0,0,1-12.77,13.86L119.31,358.3H154.9a2.28,2.28,0,0,1,1.3.41,3.29,3.29,0,0,1,1,1.3,8.11,8.11,0,0,1,.63,2.3A25.28,25.28,0,0,1,158,365.69Z"/><path class="cls-1" d="M233.28,290.39a28.88,28.88,0,0,1-.18,3.52,7.84,7.84,0,0,1-.55,2.27,3.63,3.63,0,0,1-.88,1.26,1.68,1.68,0,0,1-1.11.41H201v24.29h27.71a1.91,1.91,0,0,1,1.12.35,3,3,0,0,1,.87,1.19,7.76,7.76,0,0,1,.56,2.23,35.91,35.91,0,0,1,0,7,8.69,8.69,0,0,1-.56,2.3,3.21,3.21,0,0,1-.87,1.29,1.76,1.76,0,0,1-1.12.39H201v33.64a2.23,2.23,0,0,1-.41,1.33,3.19,3.19,0,0,1-1.51.94,13.87,13.87,0,0,1-2.82.59,47.25,47.25,0,0,1-8.9,0,13.26,13.26,0,0,1-2.83-.59,3.43,3.43,0,0,1-1.5-.94,2.08,2.08,0,0,1-.45-1.33V288.64c0-2.05.52-3.52,1.57-4.43a5.7,5.7,0,0,1,3.87-1.36h42.51a1.76,1.76,0,0,1,1.11.38,3.28,3.28,0,0,1,.88,1.26,8.39,8.39,0,0,1,.55,2.34A29.71,29.71,0,0,1,233.28,290.39Z"/><path class="cls-1" d="M322.1,366.32a24.36,24.36,0,0,1,1,4,2.41,2.41,0,0,1-.56,2.2,4.55,4.55,0,0,1-2.72.91c-1.31.11-3.1.17-5.38.17s-4.22,0-5.55-.1a13.59,13.59,0,0,1-3-.42,2.74,2.74,0,0,1-1.47-.88,4.84,4.84,0,0,1-.7-1.46l-6.07-18.15H263.75L258,370.23a5.79,5.79,0,0,1-.73,1.64,3.11,3.11,0,0,1-1.47,1.05,10.79,10.79,0,0,1-2.86.52c-1.23.09-2.85.14-4.85.14a46.42,46.42,0,0,1-5-.21,3.86,3.86,0,0,1-2.51-1,2.72,2.72,0,0,1-.49-2.27,22.66,22.66,0,0,1,1-3.91L269,286.06a7.15,7.15,0,0,1,1-1.92,3.53,3.53,0,0,1,1.78-1.12,14.38,14.38,0,0,1,3.39-.49c1.44-.07,3.35-.1,5.72-.1,2.75,0,4.93,0,6.56.1a17.91,17.91,0,0,1,3.81.49,3.69,3.69,0,0,1,1.95,1.15,7.09,7.09,0,0,1,1,2.1Zm-41.46-66.23h-.07L267.8,338.47h25.61Z"/></g></g></svg>