<svg width="23" height="20" viewBox="0 0 23 20" fill="none" xmlns="http://www.w3.org/2000/svg">
<path d="M17.2815 11.7168C15.2625 11.7168 13.5691 13.09 13.1349 14.9175C12.1037 14.4942 11.1593 14.6077 10.4429 14.9072C9.99787 13.0693 8.30452 11.7168 6.29637 11.7168C3.94087 11.7168 2.01957 13.5649 2.01957 15.8467C2.01957 18.1285 3.94087 19.9766 6.29637 19.9766C8.53247 19.9766 10.3561 18.304 10.5298 16.1771C10.8988 15.9293 11.8649 15.4647 13.0481 16.1977C13.2435 18.3143 15.0454 19.9766 17.2815 19.9766C19.637 19.9766 21.5583 18.1285 21.5583 15.8467C21.5583 13.5649 19.637 11.7168 17.2815 11.7168ZM6.29637 18.7996C4.60302 18.7996 3.24616 17.478 3.24616 15.8467C3.24616 14.2154 4.61387 12.8938 6.29637 12.8938C7.98973 12.8938 9.34658 14.2154 9.34658 15.8467C9.34658 17.478 7.98973 18.7996 6.29637 18.7996ZM17.2815 18.7996C15.5881 18.7996 14.2313 17.478 14.2313 15.8467C14.2313 14.2154 15.5881 12.8938 17.2815 12.8938C18.9748 12.8938 20.3425 14.2154 20.3425 15.8467C20.3425 17.478 18.964 18.7996 17.2815 18.7996ZM22.6438 9.13561H0.934082V10.6843H22.6438V9.13561ZM15.6207 1.01002C15.3819 0.504105 14.774 0.235661 14.1987 0.411182L11.7889 1.17521L9.36829 0.411182L9.31402 0.400857C8.73871 0.245986 8.13084 0.535079 7.91374 1.06164L5.27602 7.58689H18.3018L15.6532 1.06164L15.6207 1.01002Z" fill="#009FCA"/>
</svg>
