<svg width="34" height="32" viewBox="0 0 34 32" fill="none" xmlns="http://www.w3.org/2000/svg">
<path d="M10.6741 8.41154C11.5378 8.41154 12.3661 8.73788 12.9768 9.31876C13.5875 9.89964 13.9306 10.6875 13.9306 11.509V19.2525C13.9306 20.074 13.5875 20.8619 12.9768 21.4428C12.3661 22.0236 11.5378 22.35 10.6741 22.35C9.81048 22.35 8.98218 22.0236 8.37148 21.4428C7.76078 20.8619 7.41769 20.074 7.41769 19.2525V11.509C7.41769 10.6875 7.76078 9.89964 8.37148 9.31876C8.98218 8.73788 9.81048 8.41154 10.6741 8.41154ZM20.4435 19.2525C20.4435 23.8522 16.9265 27.6775 12.3024 28.4209V31.6423H9.04591V28.4209C4.42175 27.6775 0.904785 23.8522 0.904785 19.2525H4.16124C4.16124 20.8955 4.84742 22.4712 6.06882 23.633C7.29023 24.7947 8.94681 25.4474 10.6741 25.4474C12.4015 25.4474 14.0581 24.7947 15.2795 23.633C16.5009 22.4712 17.187 20.8955 17.187 19.2525H20.4435ZM32.5086 12.1439L25.605 18.726L27.2495 13.0577H20.4435C19.5798 13.0577 18.7515 12.7313 18.1408 12.1505C17.5301 11.5696 17.187 10.7817 17.187 9.96025V3.7654C17.187 2.94391 17.5301 2.15607 18.1408 1.57518C18.7515 0.994304 19.5798 0.667969 20.4435 0.667969H30.2129C31.0765 0.667969 31.9048 0.994304 32.5155 1.57518C33.1262 2.15607 33.4693 2.94391 33.4693 3.7654V9.96025C33.4693 10.812 33.1111 11.5864 32.5086 12.1439Z" fill="#4DB047"/>
</svg>
