<svg width="28" height="26" viewBox="0 0 28 26" fill="none" xmlns="http://www.w3.org/2000/svg">
<path d="M8.58347 8.24774H19.6795M8.58347 13.5248H16.9055M22.4535 1.65137C23.5571 1.65137 24.6155 2.06835 25.3958 2.81059C26.1762 3.55282 26.6146 4.55951 26.6146 5.60919V16.1634C26.6146 17.2131 26.1762 18.2198 25.3958 18.962C24.6155 19.7042 23.5571 20.1212 22.4535 20.1212H15.5185L8.58347 24.079V20.1212H5.80946C4.70589 20.1212 3.64752 19.7042 2.86717 18.962C2.08683 18.2198 1.64844 17.2131 1.64844 16.1634V5.60919C1.64844 4.55951 2.08683 3.55282 2.86717 2.81059C3.64752 2.06835 4.70589 1.65137 5.80946 1.65137H22.4535Z" stroke="#4EAF48" stroke-width="2" stroke-linecap="round" stroke-linejoin="round"/>
</svg>
