<svg width="4" height="22" viewBox="0 0 4 22" fill="none" xmlns="http://www.w3.org/2000/svg">
<path d="M1.95383 1C1.43853 1 0.967273 1.43794 1.00178 1.95204L1.47781 14.8046C1.47781 14.9309 1.52796 15.0519 1.61723 15.1412C1.7065 15.2305 1.82758 15.2806 1.95383 15.2806C2.08008 15.2806 2.20115 15.2305 2.29043 15.1412C2.3797 15.0519 2.42985 14.9309 2.42985 14.8046L2.90587 1.95204C2.94038 1.43794 2.46912 1 1.95383 1Z" stroke="#FF0000" stroke-width="1.7" stroke-linecap="round" stroke-linejoin="round"/>
<path d="M1.954 20.9998C2.47979 20.9998 2.90604 20.5735 2.90604 20.0477C2.90604 19.5219 2.47979 19.0957 1.954 19.0957C1.4282 19.0957 1.00195 19.5219 1.00195 20.0477C1.00195 20.5735 1.4282 20.9998 1.954 20.9998Z" stroke="#FF0000" stroke-width="1.7" stroke-linecap="round" stroke-linejoin="round"/>
</svg>
