<svg width="24" height="23" viewBox="0 0 24 23" fill="none" xmlns="http://www.w3.org/2000/svg">
<path d="M9.0689 14.0465L15.2746 8.14383M9.0689 8.14383L15.2746 14.0465M13.1069 1.65988C13.007 1.56404 12.8881 1.48797 12.7572 1.43606C12.6262 1.38415 12.4857 1.35742 12.3438 1.35742C12.2019 1.35742 12.0614 1.38415 11.9305 1.43606C11.7995 1.48797 11.6806 1.56404 11.5807 1.65988L2.25207 10.533C2.15131 10.628 2.07133 10.7411 2.01676 10.8656C1.96218 10.9902 1.93408 11.1238 1.93408 11.2588C1.93408 11.3938 1.96218 11.5274 2.01676 11.652C2.07133 11.7765 2.15131 11.8896 2.25207 11.9846L11.5807 20.8577C11.6806 20.9536 11.7995 21.0296 11.9305 21.0816C12.0614 21.1335 12.2019 21.1602 12.3438 21.1602C12.4857 21.1602 12.6262 21.1335 12.7572 21.0816C12.8881 21.0296 13.007 20.9536 13.1069 20.8577L22.4356 11.9846C22.5363 11.8896 22.6163 11.7765 22.6709 11.652C22.7254 11.5274 22.7535 11.3938 22.7535 11.2588C22.7535 11.1238 22.7254 10.9902 22.6709 10.8656C22.6163 10.7411 22.5363 10.628 22.4356 10.533L13.1069 1.65988Z" stroke="#CE5C00" stroke-width="2"/>
</svg>
