<svg width="17" height="16" viewBox="0 0 17 16" fill="none" xmlns="http://www.w3.org/2000/svg">
<path d="M17 6.00024C17.0001 6.13872 16.9562 6.27379 16.8744 6.38668C16.7926 6.49958 16.677 6.5847 16.5436 6.63023L1.36 11.8076V15.3334C1.36 15.5102 1.28836 15.6797 1.16083 15.8047C1.03331 15.9298 0.860347 16 0.68 16C0.499653 16 0.326692 15.9298 0.199168 15.8047C0.0716429 15.6797 1.15616e-07 15.5102 1.15616e-07 15.3334V0.667039C-6.31721e-05 0.560629 0.0258571 0.45575 0.0755943 0.361169C0.125331 0.266588 0.19744 0.185054 0.285893 0.123382C0.374346 0.0617096 0.476572 0.0216917 0.584027 0.0066733C0.691482 -0.00834515 0.801042 0.002072 0.90355 0.0370544L16.5436 5.37026C16.677 5.41578 16.7926 5.5009 16.8744 5.6138C16.9562 5.7267 17.0001 5.86176 17 6.00024Z" fill="#7dc700"/>
</svg>
