<svg xmlns="http://www.w3.org/2000/svg" viewBox="0 0 82.15 25.92"><defs><style>.cls-1{fill:#4eb048;}.cls-2{fill:none;}.cls-3{fill:#1d3d71;}.cls-4{fill:#be2026;}.cls-5{fill:#3e72b9;}</style></defs><title>Asset 2</title><g id="Layer_2" data-name="Layer 2"><g id="Layer_1-2" data-name="Layer 1"><path class="cls-1" d="M31.87,2.22A1.21,1.21,0,1,0,33.4,3,1.23,1.23,0,0,0,31.87,2.22Z"/><path class="cls-1" d="M18.7,7.38a1.64,1.64,0,0,1-.7.28,6.37,6.37,0,0,1-1.51.12,6.6,6.6,0,0,0-.75,0h0c1.73.7,5.87-.61,3.85,4.62,2.62-2.32,1.47-5.4-.27-6.82a2.93,2.93,0,0,1-.06.84,1.51,1.51,0,0,1-.56,1"/><path class="cls-1" d="M17.88,6a.53.53,0,0,0-.13.71.51.51,0,0,0,.7.12.55.55,0,0,0,.13-.72A.51.51,0,0,0,17.88,6Z"/><path class="cls-1" d="M8.65,13.5a1.25,1.25,0,0,1,.86.3,1,1,0,0,1,.34.75.92.92,0,0,1-.34.72,1.3,1.3,0,0,1-.86.29H1.35a1.25,1.25,0,0,1-.88-.3,1,1,0,0,1-.32-.77,1.07,1.07,0,0,1,.39-.82L5.22,9.3A7.26,7.26,0,0,0,6.46,7.81,2.62,2.62,0,0,0,6.93,6.4a1.76,1.76,0,0,0-.32-1.05,2.4,2.4,0,0,0-.83-.75,2.3,2.3,0,0,0-1.12-.28,2.5,2.5,0,0,0-1.27.37,4,4,0,0,0-1.14,1A1.13,1.13,0,0,1,1.74,6a1.67,1.67,0,0,1-.47.07A1.35,1.35,0,0,1,.4,5.79.89.89,0,0,1,0,5.07a1,1,0,0,1,.25-.62,5.85,5.85,0,0,1,.61-.62A6.62,6.62,0,0,1,2.75,2.69a5.44,5.44,0,0,1,2.06-.43,5.57,5.57,0,0,1,2.51.53A4,4,0,0,1,9,4.23a3.77,3.77,0,0,1,.58,2.08,4.28,4.28,0,0,1-.33,1.6,7.24,7.24,0,0,1-.91,1.58A13,13,0,0,1,7,11l-2.9,2.7-.24-.17Z"/><path class="cls-2" d="M13.55,9.08A4.44,4.44,0,0,0,18,13.52a4.13,4.13,0,0,0,1.69-.36,6.43,6.43,0,0,1,0-8.16A4.3,4.3,0,0,0,18,4.64,4.44,4.44,0,0,0,13.55,9.08Z"/><path class="cls-1" d="M19.69,13.16a4.13,4.13,0,0,1-1.69.36,4.44,4.44,0,1,1,0-8.88A4.3,4.3,0,0,1,19.69,5a6.61,6.61,0,0,1,1.86-1.55A6.66,6.66,0,1,0,18,15.74a6.7,6.7,0,0,0,3.55-1A6.64,6.64,0,0,1,19.69,13.16Z"/><path class="cls-2" d="M38.15,7.82a1.7,1.7,0,0,0-.43-1,2.65,2.65,0,0,0-1-.7,3,3,0,0,0-1.22-.26A4,4,0,0,0,34.37,6a2.33,2.33,0,0,0-.94.51,2.62,2.62,0,0,0-.62,1A2.69,2.69,0,0,0,32.7,8h5.45Z"/><path class="cls-2" d="M30.18,9.21c0-.21,0-.4,0-.6,0,.16,0,.31,0,.47S30.18,9.17,30.18,9.21Z"/><path class="cls-2" d="M30.27,8.17l0,.12Z"/><path class="cls-3" d="M60,1.61a1.32,1.32,0,0,0-.91.33,1.12,1.12,0,0,0-.36.84V13a1.12,1.12,0,0,0,.35.84,1.26,1.26,0,0,0,.88.34,1.33,1.33,0,0,0,.91-.34,1.09,1.09,0,0,0,.36-.84V2.78a1.14,1.14,0,0,0-.34-.84A1.24,1.24,0,0,0,60,1.61Z"/><path class="cls-3" d="M69.48,12A1.21,1.21,0,0,0,69,12a1.14,1.14,0,0,1-.46.09,1.18,1.18,0,0,1-.43-.08.59.59,0,0,1-.31-.25.74.74,0,0,1-.12-.44V6.15h1.48a1.2,1.2,0,0,0,.84-.3,1,1,0,0,0,.33-.74A1,1,0,0,0,70,4.34a1.2,1.2,0,0,0-.84-.3H67.68V2.81A1.11,1.11,0,0,0,67.34,2a1.25,1.25,0,0,0-.89-.34,1.33,1.33,0,0,0-.91.34,1.09,1.09,0,0,0-.36.84V4h-1a1.24,1.24,0,0,0-.84.29,1,1,0,0,0-.33.74,1,1,0,0,0,.33.77,1.16,1.16,0,0,0,.84.31h1v5.3a2.91,2.91,0,0,0,.31,1.48,2.07,2.07,0,0,0,.78.8,2.81,2.81,0,0,0,1,.33,9,9,0,0,0,1,.07,2.81,2.81,0,0,0,1.36-.35,1,1,0,0,0,.64-.88,1,1,0,0,0-.24-.7A.75.75,0,0,0,69.48,12Z"/><path class="cls-3" d="M81.86,5.93a3.07,3.07,0,0,0-1.08-1.59,3.77,3.77,0,0,0-2.29-.59,4,4,0,0,0-1.27.2,4.21,4.21,0,0,0-1.06.53,4.78,4.78,0,0,0-.82.7l-.21.25V1.17a1.07,1.07,0,0,0-.35-.83,1.36,1.36,0,0,0-1.8,0,1.11,1.11,0,0,0-.35.83V13.05a1.15,1.15,0,0,0,.35.84,1.39,1.39,0,0,0,1.8,0,1.11,1.11,0,0,0,.35-.84V8.13A2.3,2.3,0,0,1,75.42,7a2,2,0,0,1,.84-.82,2.76,2.76,0,0,1,1.36-.31,2.12,2.12,0,0,1,1.25.31,1.62,1.62,0,0,1,.61.82,3.7,3.7,0,0,1,.16,1.14v4.92a1.12,1.12,0,0,0,.36.84,1.38,1.38,0,0,0,1.79,0,1.12,1.12,0,0,0,.36-.84V8.13A7.92,7.92,0,0,0,81.86,5.93Z"/><rect class="cls-3" x="23.38" y="7.61" width="5.99" height="2"/><path class="cls-3" d="M24.62,8.28A2,2,0,0,0,24.57,8a6.55,6.55,0,0,0-1.42-3.18l-.21.08.21-.08a7.94,7.94,0,0,0-.57-.59A5.27,5.27,0,0,0,20.73,5.6c.17.14.35.28.51.44a4.44,4.44,0,0,1,0,6.09h0c-.16.16-.34.3-.51.44a5.39,5.39,0,0,0,1.85,1.35,8.08,8.08,0,0,0,.57-.6,6.64,6.64,0,0,0,1.42-3.1.5.5,0,0,1,0-.13,6.66,6.66,0,0,0,.08-1A7,7,0,0,0,24.62,8.28Z"/><path class="cls-3" d="M30.18,9.23v0s0-.08,0-.13,0-.31,0-.47l0-.32,0-.12a5,5,0,0,1,.67-1.89,6,6,0,0,1,.72-.92A5.12,5.12,0,0,0,30,4.25a7.81,7.81,0,0,0-.56.59l.21.08-.21-.08A6.55,6.55,0,0,0,28.05,8a2,2,0,0,0-.05.26,5.29,5.29,0,0,0-.06.8,6.66,6.66,0,0,0,.08,1l0,.13a6.64,6.64,0,0,0,1.42,3.1,8,8,0,0,0,.56.6,5.39,5.39,0,0,0,1.61-1.09,4.6,4.6,0,0,1-.76-.95A5,5,0,0,1,30.18,9.23Z"/><path class="cls-4" d="M30.24,8.29l0,.32Z"/><path class="cls-3" d="M55.45,4a1.28,1.28,0,0,0-.9-.33,1.21,1.21,0,0,0-.89.34,1.08,1.08,0,0,0-.36.83v0a2.78,2.78,0,0,0-.41-.32,5.08,5.08,0,0,0-1.3-.64,5.39,5.39,0,0,0-1.65-.25,5,5,0,0,0-2.55.68,5.08,5.08,0,0,0-1.82,1.89A5.44,5.44,0,0,0,44.89,9a5.43,5.43,0,0,0,.68,2.76,5,5,0,0,0,1.84,1.89,5.13,5.13,0,0,0,2.61.68,4.36,4.36,0,0,0,1.47-.24,4.82,4.82,0,0,0,1.18-.59A3.45,3.45,0,0,0,53.3,13a1.08,1.08,0,0,0,.36.83,1.25,1.25,0,0,0,.89.34,1.29,1.29,0,0,0,.9-.34,1.09,1.09,0,0,0,.36-.84V4.82A1.09,1.09,0,0,0,55.45,4Zm-3.51,7.8a3.24,3.24,0,0,1-3.19,0,2.83,2.83,0,0,1-1.07-1.15A3.42,3.42,0,0,1,47.29,9a3.46,3.46,0,0,1,.39-1.65,2.83,2.83,0,0,1,1.07-1.15,3.24,3.24,0,0,1,3.19,0A2.92,2.92,0,0,1,53,7.34,3.46,3.46,0,0,1,53.4,9,3.42,3.42,0,0,1,53,10.63,2.92,2.92,0,0,1,51.94,11.78Z"/><path class="cls-3" d="M41.76,5.16a5.37,5.37,0,0,0-1.68-1.1,5.14,5.14,0,0,0-2-.41,5.44,5.44,0,0,0-2.61.66,5.18,5.18,0,0,0-1.27,1,5.45,5.45,0,0,0-.72.91,5.07,5.07,0,0,0-.67,1.89l0,.13c0,.1,0,.21,0,.31s0,.4,0,.6v0a5,5,0,0,0,.7,2.65,4.35,4.35,0,0,0,.76,1,5,5,0,0,0,1.24.91,7,7,0,0,0,5.11.36A5,5,0,0,0,42,13.26a1.16,1.16,0,0,0,.58-.94.89.89,0,0,0-.3-.67,1,1,0,0,0-.76-.29,1.79,1.79,0,0,0-.71.17l-.51.28a3.1,3.1,0,0,1-.74.28,5.16,5.16,0,0,1-1.23.11,3.43,3.43,0,0,1-1.58-.37,3,3,0,0,1-1.21-1.1,2.75,2.75,0,0,1-.38-1h6.88A1.37,1.37,0,0,0,43,9.49a.94.94,0,0,0,.39-.75,4.7,4.7,0,0,0-.42-2A5.65,5.65,0,0,0,41.76,5.16Zm-1.09,2.7H35.22a2.83,2.83,0,0,1,.11-.44,2.47,2.47,0,0,1,.62-1,2.35,2.35,0,0,1,.94-.52,4.47,4.47,0,0,1,1.17-.15A2.82,2.82,0,0,1,39.28,6a2.54,2.54,0,0,1,1,.7,1.65,1.65,0,0,1,.43,1Z"/><path class="cls-5" d="M.32,25.86v-.27L1.8,24a4.7,4.7,0,0,0,.59-.72,1.13,1.13,0,0,0,.17-.55.85.85,0,0,0-.24-.63.92.92,0,0,0-.68-.24,1.06,1.06,0,0,0-.78.27.93.93,0,0,0-.27.7H.24A1.14,1.14,0,0,1,.6,22a1.46,1.46,0,0,1,1-.36,1.35,1.35,0,0,1,.94.31,1.08,1.08,0,0,1,.35.83,1.23,1.23,0,0,1-.24.7,5.58,5.58,0,0,1-.65.8L.79,25.55v0h2l0-.59h.33v.88Z"/><path class="cls-5" d="M8.59,23H8.3l-.05-.63A1.23,1.23,0,0,0,7.78,22a1.6,1.6,0,0,0-.67-.13,1.53,1.53,0,0,0-1.21.51,1.92,1.92,0,0,0-.45,1.32v.06a2,2,0,0,0,.44,1.32,1.5,1.5,0,0,0,1.17.52,2,2,0,0,0,.7-.13,1.35,1.35,0,0,0,.49-.32l.05-.63h.29v.73a1.7,1.7,0,0,1-.62.46,2.21,2.21,0,0,1-.91.18,1.86,1.86,0,0,1-1.43-.6,2.16,2.16,0,0,1-.55-1.53v-.05a2.13,2.13,0,0,1,.55-1.53,1.88,1.88,0,0,1,1.45-.6,2.16,2.16,0,0,1,.9.18,1.54,1.54,0,0,1,.61.45Z"/><path class="cls-5" d="M13.29,21.93v-.26h1.38v.26l-.5,0v1.68h2.58V22l-.51,0v-.26h1.39v.26l-.51,0v3.61l.51,0v.26H16.24V25.6l.51,0V23.93H14.17v1.64l.5,0v.26H13.29V25.6l.51,0V22Z"/><path class="cls-5" d="M20.92,25.92a1.43,1.43,0,0,1-1.05-.43,1.51,1.51,0,0,1-.42-1.1v-.16a1.52,1.52,0,0,1,.42-1.1,1.32,1.32,0,0,1,2.34.89v.29H19.82v.08a1.28,1.28,0,0,0,.31.88,1,1,0,0,0,.79.36,1.8,1.8,0,0,0,.6-.09,1.29,1.29,0,0,0,.42-.26l.16.24a1.43,1.43,0,0,1-.48.29A2.1,2.1,0,0,1,20.92,25.92ZM20.87,23a.94.94,0,0,0-.69.29,1.2,1.2,0,0,0-.33.73v0h2v-.09a1,1,0,0,0-.25-.68A1,1,0,0,0,20.87,23Z"/><path class="cls-5" d="M26.48,25.86c0-.11,0-.2-.06-.28a1.69,1.69,0,0,1,0-.23,1.57,1.57,0,0,1-.5.41,1.6,1.6,0,0,1-.7.16,1.13,1.13,0,0,1-.77-.24.81.81,0,0,1-.27-.64.76.76,0,0,1,.4-.68,2,2,0,0,1,1.09-.26h.75v-.41a.65.65,0,0,0-.23-.52,1,1,0,0,0-.65-.19,1.72,1.72,0,0,0-.52.07,1.23,1.23,0,0,0-.38.19l0,.42h-.3v-.6a2.08,2.08,0,0,1,.56-.27,2.26,2.26,0,0,1,.69-.1,1.42,1.42,0,0,1,.9.26.87.87,0,0,1,.34.75v1.71c0,.06,0,.12,0,.17l.34,0v.26Zm-1.23-.25a1.46,1.46,0,0,0,.71-.17,1,1,0,0,0,.45-.45v-.62h-.75a1.47,1.47,0,0,0-.81.19.57.57,0,0,0-.31.49.49.49,0,0,0,.19.41A.82.82,0,0,0,25.25,25.61Z"/><path class="cls-5" d="M28.87,21.63v-.26h.88v4.2l.51,0v.26H28.87V25.6l.51,0V21.66Z"/><path class="cls-5" d="M33,22v.8h.75V23H33v2a.64.64,0,0,0,.12.44.44.44,0,0,0,.32.12h.18l.2,0,.05.26-.22.06-.27,0a.75.75,0,0,1-.56-.21,1,1,0,0,1-.19-.66V23H32v-.28h.58V22Z"/><path class="cls-5" d="M35.58,21.63v-.26h.88v1.91a1.19,1.19,0,0,1,.45-.44,1.33,1.33,0,0,1,.65-.15,1.07,1.07,0,0,1,.82.3,1.37,1.37,0,0,1,.29,1v1.63l.5,0v.26H37.78V25.6l.51,0V23.93a1,1,0,0,0-.22-.72.77.77,0,0,0-.59-.22,1.08,1.08,0,0,0-.64.18,1.12,1.12,0,0,0-.38.5v1.9l.51,0v.26H35.58V25.6l.51,0V21.66Z"/><path class="cls-5" d="M47,22.91h-.3l0-.59a1.29,1.29,0,0,0-.46-.31,2,2,0,0,0-.68-.11,1.49,1.49,0,0,0-.88.23.65.65,0,0,0-.31.55.62.62,0,0,0,.28.53,2.7,2.7,0,0,0,1,.37,2.89,2.89,0,0,1,1.11.47.95.95,0,0,1-.06,1.57,2,2,0,0,1-1.13.3,2.66,2.66,0,0,1-.9-.16,1.76,1.76,0,0,1-.68-.45v-.74h.3l.06.62a1.24,1.24,0,0,0,.52.32,2,2,0,0,0,.7.12,1.6,1.6,0,0,0,.87-.22.67.67,0,0,0,.33-.58.66.66,0,0,0-.28-.56,2.65,2.65,0,0,0-1-.38,3.3,3.3,0,0,1-1.13-.45.87.87,0,0,1-.38-.75.91.91,0,0,1,.43-.78,2,2,0,0,1,1.13-.3,2.23,2.23,0,0,1,.88.16,1.46,1.46,0,0,1,.61.43Z"/><path class="cls-5" d="M48.92,24.25a1.59,1.59,0,0,1,.41-1.12,1.55,1.55,0,0,1,2.16,0,1.55,1.55,0,0,1,.41,1.12v.1a1.59,1.59,0,0,1-.4,1.13,1.56,1.56,0,0,1-2.17,0,1.6,1.6,0,0,1-.41-1.13Zm.37.1a1.4,1.4,0,0,0,.3.91,1,1,0,0,0,.83.37,1,1,0,0,0,.81-.37,1.4,1.4,0,0,0,.3-.91v-.1a1.4,1.4,0,0,0-.3-.9,1.09,1.09,0,0,0-1.64,0,1.4,1.4,0,0,0-.3.9Z"/><path class="cls-5" d="M53.65,21.63v-.26h.88v4.2l.51,0v.26H53.65V25.6l.51,0V21.66Z"/><path class="cls-5" d="M59.38,25.34a1,1,0,0,1-.43.43,1.36,1.36,0,0,1-.65.15,1.08,1.08,0,0,1-.84-.34,1.49,1.49,0,0,1-.3-1V23l-.42,0v-.25h.79v1.8a1.28,1.28,0,0,0,.21.82.76.76,0,0,0,.6.25,1.16,1.16,0,0,0,.68-.18.93.93,0,0,0,.35-.47V23l-.48,0v-.25h.85v2.82l.46,0v.26h-.78Z"/><path class="cls-5" d="M62.88,22v.8h.74V23h-.74v2a.64.64,0,0,0,.12.44.42.42,0,0,0,.32.12h.17l.2,0,.06.26-.23.06-.27,0a.72.72,0,0,1-.55-.21,1,1,0,0,1-.2-.66V23h-.58v-.28h.58V22Z"/><path class="cls-5" d="M65.56,25.6l.51,0V23l-.51,0v-.25h.88v2.82l.5,0v.26H65.56Zm.88-3.75h-.37v-.48h.37Z"/><path class="cls-5" d="M68.85,24.25a1.55,1.55,0,0,1,.41-1.12,1.55,1.55,0,0,1,2.16,0,1.59,1.59,0,0,1,.41,1.12v.1a1.56,1.56,0,0,1-.41,1.13,1.55,1.55,0,0,1-2.16,0,1.56,1.56,0,0,1-.41-1.13Zm.37.1a1.4,1.4,0,0,0,.3.91,1.09,1.09,0,0,0,1.64,0,1.4,1.4,0,0,0,.3-.91v-.1a1.4,1.4,0,0,0-.3-.9,1.09,1.09,0,0,0-1.64,0,1.4,1.4,0,0,0-.3.9Z"/><path class="cls-5" d="M73.65,25.6l.51,0V23l-.51,0v-.25h.84l0,.54a1.19,1.19,0,0,1,.44-.45,1.33,1.33,0,0,1,.65-.15,1.07,1.07,0,0,1,.84.31,1.36,1.36,0,0,1,.28,1v1.61l.51,0v.26H75.85V25.6l.51,0V24a1,1,0,0,0-.22-.75.8.8,0,0,0-.61-.22,1,1,0,0,0-1,.7v1.88l.51,0v.26H73.65Z"/><path class="cls-5" d="M81.55,23.71h-.3l0-.44a.93.93,0,0,0-.35-.21,1.48,1.48,0,0,0-.49-.08,1,1,0,0,0-.62.16.5.5,0,0,0-.2.38.43.43,0,0,0,.18.36,1.78,1.78,0,0,0,.7.25,2.26,2.26,0,0,1,.9.34.67.67,0,0,1,.3.58.73.73,0,0,1-.34.63,1.54,1.54,0,0,1-.9.24,2.5,2.5,0,0,1-.69-.1,1.76,1.76,0,0,1-.53-.27v-.63h.31l0,.44a.77.77,0,0,0,.38.2,1.51,1.51,0,0,0,.48.07,1.1,1.1,0,0,0,.64-.17.48.48,0,0,0,.23-.39.5.5,0,0,0-.2-.39,1.52,1.52,0,0,0-.7-.26,2.71,2.71,0,0,1-.89-.32.63.63,0,0,1-.29-.56.76.76,0,0,1,.32-.61,1.45,1.45,0,0,1,.87-.24,2.15,2.15,0,0,1,.68.1,1.43,1.43,0,0,1,.5.29Z"/></g></g></svg>