<svg xmlns="http://www.w3.org/2000/svg" viewBox="0 0 26.72 21.57"><defs><style>.cls-1{fill:#50af48;}.cls-2{fill:#1b4688;}</style></defs><g id="Layer_2" data-name="Layer 2"><g id="Layer_1-2" data-name="Layer 1"><path class="cls-1" d="M6.06,4.45c1.36,6.18,6.17,5.69,9.77,11.11a26.2,26.2,0,0,0-3-7.88A8.44,8.44,0,0,0,6.06,4.45Z"/><path class="cls-2" d="M23.31,2.6c-4.62,2.85-2.75,7.54-5.94,13.18a24.18,24.18,0,0,0,4.81-5.94A8.74,8.74,0,0,0,23.31,2.6Z"/><path class="cls-2" d="M26.72,8.77c-3.65-.1-4.45,4.46-8.46,7.34a13.75,13.75,0,0,0,5-2.24A8,8,0,0,0,26.72,8.77Z"/><path class="cls-1" d="M6.81,17.33c2.34,1.48,4.46-.85,7.89-.85a11,11,0,0,0-4-.7A5.16,5.16,0,0,0,6.81,17.33Z"/><path class="cls-2" d="M13.21,0c-1.48,7.74,2.16,5.63,3.39,15.78.49-2,1.93-6.26,1.65-9.19A10.19,10.19,0,0,0,13.21,0Z"/><path class="cls-1" d="M5,13.36c3,3.08,6.11.8,10.4,2.57a15.83,15.83,0,0,0-4.71-3.53A7,7,0,0,0,5,13.36Z"/><path class="cls-1" d="M6.5,21.41c5.35,1,11.88-2.78,19.65-1.49C19.3,17.22,11.34,21.51,6.5,21.41Z"/><path class="cls-2" d="M8.63,18.89a10.16,10.16,0,0,1-5.39-.78A11.55,11.55,0,0,1,0,15.86a8.63,8.63,0,0,0,8.91,4.45c4.9-.4,10.51-3.16,16.45-1.48l.82.25C20.28,14.13,14.52,18.28,8.63,18.89Z"/></g></g></svg>