<svg width="21" height="17" viewBox="0 0 21 17" fill="none" xmlns="http://www.w3.org/2000/svg">
<path d="M5.27602 16.877L0.934082 12.7471L5.27602 8.61723L6.82283 10.0627L5.08606 11.7147H9.61795V13.7796H5.08606L6.79569 15.4316L5.27602 16.877ZM12.8744 13.7796C12.5669 13.7796 12.3089 13.6805 12.1005 13.4823C11.892 13.284 11.7882 13.039 11.7889 12.7471C11.7889 12.4546 11.8931 12.2092 12.1015 12.011C12.31 11.8127 12.5676 11.714 12.8744 11.7147C13.182 11.7147 13.4399 11.8138 13.6484 12.012C13.8568 12.2102 13.9606 12.4553 13.9599 12.7471C13.9599 13.0397 13.8557 13.2851 13.6473 13.4833C13.4389 13.6815 13.1812 13.7803 12.8744 13.7796ZM17.2163 13.7796C16.9088 13.7796 16.6508 13.6805 16.4424 13.4823C16.234 13.284 16.1301 13.039 16.1309 12.7471C16.1309 12.4546 16.2351 12.2092 16.4435 12.011C16.6519 11.8127 16.9095 11.714 17.2163 11.7147C17.5239 11.7147 17.7819 11.8138 17.9903 12.012C18.1987 12.2102 18.3025 12.4553 18.3018 12.7471C18.3018 13.0397 18.1976 13.2851 17.9892 13.4833C17.7808 13.6815 17.5232 13.7803 17.2163 13.7796ZM16.1309 8.61723L14.584 7.17177L16.3208 5.5198H11.7889V3.45485H16.3208L14.6112 1.80289L16.1309 0.357422L20.4728 4.48733L16.1309 8.61723ZM4.19053 5.5198C3.88298 5.5198 3.625 5.42069 3.41658 5.22245C3.20817 5.02421 3.10433 4.77917 3.10505 4.48733C3.10505 4.19479 3.20926 3.94941 3.41767 3.75117C3.62608 3.55294 3.8837 3.45416 4.19053 3.45485C4.49809 3.45485 4.75607 3.55397 4.96448 3.7522C5.1729 3.95044 5.27674 4.19548 5.27602 4.48733C5.27602 4.77986 5.17181 5.02525 4.9634 5.22348C4.75499 5.42172 4.49736 5.52049 4.19053 5.5198ZM8.53247 5.5198C8.22492 5.5198 7.96693 5.42069 7.75852 5.22245C7.55011 5.02421 7.44626 4.77917 7.44699 4.48733C7.44699 4.19479 7.55119 3.94941 7.7596 3.75117C7.96802 3.55294 8.22564 3.45416 8.53247 3.45485C8.84002 3.45485 9.09801 3.55397 9.30642 3.7522C9.51483 3.95044 9.61868 4.19548 9.61795 4.48733C9.61795 4.77986 9.51375 5.02525 9.30533 5.22348C9.09692 5.42172 8.8393 5.52049 8.53247 5.5198Z" fill="#0038A8"/>
</svg>
