<svg width="23" height="17" viewBox="0 0 23 17" fill="none" xmlns="http://www.w3.org/2000/svg">
<path d="M13.7885 12.7471H15.9595V10.6822H18.1304V8.61723H15.9595V6.55228H13.7885V8.61723H11.6175V10.6822H13.7885V12.7471ZM2.93367 16.877C2.33665 16.877 1.82539 16.6747 1.39988 16.2699C0.974366 15.8652 0.761973 15.3793 0.762697 14.8121V2.42238C0.762697 1.85451 0.975452 1.36822 1.40096 0.963487C1.82647 0.558756 2.33737 0.356735 2.93367 0.357424H9.44657L11.6175 2.42238H20.3014C20.8984 2.42238 21.4097 2.62474 21.8352 3.02947C22.2607 3.4342 22.4731 3.92016 22.4724 4.48733V14.8121C22.4724 15.38 22.2596 15.8663 21.8341 16.271C21.4086 16.6757 20.8977 16.8777 20.3014 16.877H2.93367ZM2.93367 2.42238V14.8121H20.3014V4.48733H10.722L8.55104 2.42238H2.93367Z" fill="#00B40D"/>
</svg>
