<svg width="18" height="29" viewBox="0 0 18 29" fill="none" xmlns="http://www.w3.org/2000/svg">
<path d="M9.04591 28.3264C6.77627 28.3264 4.852 27.5755 3.27311 26.0737C1.69423 24.572 0.904785 22.7417 0.904785 20.5828V5.79966C0.904785 4.25094 1.48453 2.92515 2.64403 1.82228C3.80352 0.719405 5.19738 0.167969 6.82561 0.167969C8.45383 0.167969 9.84769 0.719405 11.0072 1.82228C12.1667 2.92515 12.7464 4.25094 12.7464 5.79966V19.1749C12.7464 20.1605 12.3887 20.9935 11.6733 21.674C10.9578 22.3545 10.0821 22.6947 9.04591 22.6947C8.00977 22.6947 7.13398 22.3545 6.41855 21.674C5.70312 20.9935 5.3454 20.1605 5.3454 19.1749V5.79966H7.56571V19.1749C7.56571 19.5738 7.70781 19.9084 7.99201 20.1788C8.27621 20.4491 8.62751 20.5838 9.04591 20.5828C9.46531 20.5828 9.8171 20.4477 10.1013 20.1774C10.3855 19.907 10.5271 19.5729 10.5261 19.1749V5.79966C10.5261 4.81411 10.1684 3.98109 9.45297 3.3006C8.73754 2.6201 7.86175 2.27985 6.82561 2.27985C5.78946 2.27985 4.91368 2.6201 4.19824 3.3006C3.48281 3.98109 3.12509 4.81411 3.12509 5.79966V20.5828C3.12509 22.1316 3.70484 23.4573 4.86433 24.5602C6.02383 25.6631 7.41769 26.2145 9.04591 26.2145C10.6741 26.2145 12.068 25.6631 13.2275 24.5602C14.387 23.4573 14.9667 22.1316 14.9667 20.5828V5.79966H17.187V20.5828C17.187 22.7417 16.3976 24.572 14.8187 26.0737C13.2398 27.5755 11.3156 28.3264 9.04591 28.3264Z" fill="#4DB047"/>
</svg>
