<svg xmlns="http://www.w3.org/2000/svg" xmlns:xlink="http://www.w3.org/1999/xlink" viewBox="0 0 102 15.35"><defs><style>.cls-1{fill:#0074ae;}.cls-2{fill:#f80;}</style><symbol id="A" data-name="A" viewBox="0 0 100 15.05"><path class="cls-1" d="M4.71,7.07,4,2.81H0L2.13,15H7.89a16.47,16.47,0,0,0,2.32-.18,3.39,3.39,0,0,0,1.5-.53,2.63,2.63,0,0,0,.89-.8,2.41,2.41,0,0,0,.27-1.15,2.4,2.4,0,0,0-.09-.8,3.59,3.59,0,0,0-2.57-3l.71-.27a2,2,0,0,0,.54-.35,1.33,1.33,0,0,0,.35-.53,2.21,2.21,0,0,0,.09-.8,6.09,6.09,0,0,0-.09-1.23,6.35,6.35,0,0,1-.17-1.07,1.82,1.82,0,0,1-.1-.62c0-.27.1-.44.27-.44l-.09-.35H7.55V3.88a5.18,5.18,0,0,0,.17,1,3.65,3.65,0,0,1,.1,1,1,1,0,0,1-.45.89C7.2,7,6.66,7.09,6,7.09H4.71Zm.52,2.67h1.6A3.17,3.17,0,0,1,8.26,10a1.1,1.1,0,0,1,.62.88v.27c0,.35-.1.62-.35.72a2,2,0,0,1-1.07.27H5.59Z"/><path id="C" class="cls-1" d="M18.37,11.69h3.2l-.27-1.43a6.07,6.07,0,0,0,1.51,1.24,3.71,3.71,0,0,0,1.77.44,3.33,3.33,0,0,0,2.22-.71,2.84,2.84,0,0,0,.72-2.05,3.81,3.81,0,0,0-.1-1.06L26.53,2.8H23l.8,4.7c0,.18.09.45.09.62a2.79,2.79,0,0,1-.17.8,1.13,1.13,0,0,1-.8.27,1.38,1.38,0,0,1-1.15-.45,2.92,2.92,0,0,1-.54-1.33l-.8-4.61H16.86Z"/><path class="cls-1" d="M30.88,2.55a.47.47,0,0,1,.17-.35c.1-.17.35-.17.72-.17a1.5,1.5,0,0,1,1.15.35,2.26,2.26,0,0,1,.54,1.33l.18.71a5.5,5.5,0,0,0-1.07-.71A4.25,4.25,0,0,0,31,3.44a3.85,3.85,0,0,0-1.42.27,2.64,2.64,0,0,0-1,.71A2.94,2.94,0,0,0,28,5.48a3.23,3.23,0,0,0-.18,1.34v.44a.74.74,0,0,0,.1.45,12.33,12.33,0,0,0,.44,1.6,4.24,4.24,0,0,0,1,1.42,4.17,4.17,0,0,0,1.43,1.07,4.36,4.36,0,0,0,2,.35,2.54,2.54,0,0,0,1.42-.35,2.32,2.32,0,0,0,1-1.07l.17,1.16h3.11L37.12,4.71a13,13,0,0,0-.44-1.87,5,5,0,0,0-.8-1.51,3,3,0,0,0-1.6-1A7.32,7.32,0,0,0,31.62,0a11.08,11.08,0,0,0-1.95.18,8.53,8.53,0,0,0-1.33.53,2.18,2.18,0,0,0-.72.8,1.82,1.82,0,0,0-.27.89v.09H30.9v.07ZM33,9.64a2.3,2.3,0,0,1-.71-.17A3.38,3.38,0,0,1,31.75,9a1.35,1.35,0,0,1-.35-.62,2.61,2.61,0,0,1-.17-.79V7.16a1.48,1.48,0,0,1,.27-.88c.17-.27.44-.35.89-.45h.09a2.32,2.32,0,0,1,.71.18,2.9,2.9,0,0,1,.54.44,1.31,1.31,0,0,1,.35.62,1.5,1.5,0,0,1,.18.71c0,.18.09.35.09.54a1.8,1.8,0,0,1-.27,1A2.09,2.09,0,0,1,33,9.64Z"/><path class="cls-2" d="M46.6,10.27v.19a1.75,1.75,0,0,1-.44,1.24,1.85,1.85,0,0,1-1.34.44,2.06,2.06,0,0,1-1.68-.79,5.55,5.55,0,0,1-1-2.49c0-.17-.09-.44-.09-.62V7.7a2.34,2.34,0,0,1,.09-.79,3.76,3.76,0,0,1,.27-.62A2.37,2.37,0,0,1,43,5.85a2.43,2.43,0,0,1,.89-.18,2.22,2.22,0,0,1,1.5.54,3.12,3.12,0,0,1,.8,1.43h3.63a8.54,8.54,0,0,0-.89-2,7.53,7.53,0,0,0-1.43-1.5,6.06,6.06,0,0,0-1.87-1,9.29,9.29,0,0,0-2.12-.35,6.16,6.16,0,0,0-2.22.35,4.77,4.77,0,0,0-1.6.89,3.45,3.45,0,0,0-1,1.51,4.67,4.67,0,0,0-.35,2v.71c0,.27.09.44.09.71a7.46,7.46,0,0,0,.89,2.49,8.22,8.22,0,0,0,1.6,2,9.12,9.12,0,0,0,2,1.24,7,7,0,0,0,2.32.44A5.47,5.47,0,0,0,49,13.93a4,4,0,0,0,1.24-3.11v-.54Zm7.27-3.55V6.37a1.42,1.42,0,0,1,.44-1.06A1.4,1.4,0,0,1,55.37,5a2.79,2.79,0,0,1,.8.17,1.43,1.43,0,0,1,.62.62h3.37a5,5,0,0,0-1-1.42,6.06,6.06,0,0,0-1.33-.89,8.13,8.13,0,0,0-1.51-.54,9.55,9.55,0,0,0-1.6-.17A5.89,5.89,0,0,0,53,3a3,3,0,0,0-1.33.71,3.54,3.54,0,0,0-.89,1.16,4.2,4.2,0,0,0-.35,1.6v.44a.81.81,0,0,0,.09.45,4.62,4.62,0,0,0,.72,2,5.17,5.17,0,0,0,1.33,1.5,6.69,6.69,0,0,0,1.77,1,5.18,5.18,0,0,0,2,.35,5.9,5.9,0,0,0,1.87-.27A3.34,3.34,0,0,0,59.65,11a5,5,0,0,0,.89-1.34A5.28,5.28,0,0,0,60.81,8a10.72,10.72,0,0,0-.17-1.33H53.9v.08ZM57.32,8.5v.27a1.06,1.06,0,0,1-.35.89A1.2,1.2,0,0,1,56,10a2.14,2.14,0,0,1-1.33-.45A1.64,1.64,0,0,1,54,8.4h3.28Z"/><path class="cls-2" d="M61.84,11.69H65l-.27-1.43a6.25,6.25,0,0,0,1.51,1.24,3.71,3.71,0,0,0,1.77.44,3.33,3.33,0,0,0,2.22-.71A2.84,2.84,0,0,0,71,9.18a3.81,3.81,0,0,0-.1-1.06L70,2.8H66.45l.8,4.7c0,.18.09.45.09.62a2.79,2.79,0,0,1-.17.8,1.13,1.13,0,0,1-.8.27,1.38,1.38,0,0,1-1.15-.45,2.92,2.92,0,0,1-.54-1.33L63.89,2.8H60.34Z"/><path class="cls-2" d="M76.57,2.81a3.92,3.92,0,0,1-1.06-.09h-.89a5.73,5.73,0,0,0-1.33.09l-.89.27a1,1,0,0,0-.45.54,1.72,1.72,0,0,0-.17.79v.71c0,.27.09.54.09.8l.62,3.82H71.26l.35,2h1.33l.54,2.76h3.45l-.53-2.76h1.68l-.35-2H76.05l-.54-3.29a.32.32,0,0,0-.1-.27V5.91a.74.74,0,0,1,.18-.44,1.46,1.46,0,0,1,.79-.17h.54Zm2.23,8.88H82l-.27-1.78A3.45,3.45,0,0,0,84.84,12h.54l-.62-3.55c-.1,0-.27.09-.35.09h-.35a2.05,2.05,0,0,1-1.68-.62,3.27,3.27,0,0,1-.89-2L81,2.73H77.4Zm11.26-9V4a6,6,0,0,0-1.68-1,5.81,5.81,0,0,0-1.87-.27,3.81,3.81,0,0,0-1.06.1,1.71,1.71,0,0,0-.89.44,2.34,2.34,0,0,0-.62.71,1.76,1.76,0,0,0-.18,1,1,1,0,0,0,.1.53,2.89,2.89,0,0,0,.71,1.6A5,5,0,0,0,85.9,8l1.6.45a9.77,9.77,0,0,0,1.6.17l1.24.27c.35.1.54.27.54.62v.19c0,.18,0,.27-.1.35s-.17.18-.27.18-.17.09-.35.09h-.62c-.17,0-.27-.09-.35-.09s-.27-.18-.35-.27a2.79,2.79,0,0,1-.27-.45H85.2a5,5,0,0,0,.44,1.24,3.65,3.65,0,0,0,1,1,6.93,6.93,0,0,0,1.6.62,9,9,0,0,0,2.32.17,12.39,12.39,0,0,0,1.95-.17,3.92,3.92,0,0,0,1.23-.44,1.52,1.52,0,0,0,.62-.72,2.9,2.9,0,0,0,.18-1V9.56c0-.27-.09-.44-.09-.71l-.72-4.17a4.4,4.4,0,0,0-.09-.45c0-.09,0-.27.09-.35s.1-.17.27-.35V3.09h-3.9V2.73Zm-1.68,2a2.66,2.66,0,0,1,.79.17,1.61,1.61,0,0,1,.62.45,1.58,1.58,0,0,1,.35.71,2.43,2.43,0,0,1,.18.89,2,2,0,0,0-1-.27c-.35-.1-.62-.1-.89-.18a1.58,1.58,0,0,1-.71-.35.86.86,0,0,1-.35-.62V5.47A.48.48,0,0,1,87.66,5a1,1,0,0,1,.72-.27Zm9.5-1.95H94.33L96.45,15H100Z"/><path class="cls-1" d="M15.8,2.81H12.34L14.29,10h2.57Z"/><path class="cls-2" d="M18.1,13.19h0a.63.63,0,0,1-.35.35,3.57,3.57,0,0,1-1.33.62,1,1,0,0,1-.79,0,3.93,3.93,0,0,1-1.07-.35h-.09a.44.44,0,0,0-.62.62,2.22,2.22,0,0,0,1.6.62A4.22,4.22,0,0,0,16.51,15a2.86,2.86,0,0,0,2.22-1.43.44.44,0,0,0-.17-.54h-.17a3.09,3.09,0,0,0-.29.21Zm-1-.9-.17.18a1.61,1.61,0,0,1-.72.35H15.8a.82.82,0,0,1-.54-.18.38.38,0,0,0-.54.54,1.84,1.84,0,0,0,1,.44h.62a2.12,2.12,0,0,0,1.42-.88.33.33,0,0,0-.17-.45h-.1c-.17-.27-.35-.17-.35,0Zm-.35-.87a.87.87,0,0,0-.89-.8.81.81,0,0,0-.88.8.87.87,0,0,0,.88.79.81.81,0,0,0,.89-.79"/></symbol></defs><title>Asset 1</title><g id="Layer_2" data-name="Layer 2"><g id="Layer_1-2" data-name="Layer 1"><use width="100" height="15.05" transform="matrix(1.02, 0, 0, -1.02, 0, 15.35)" xlink:href="#A"/></g></g></svg>