<svg width="26" height="23" viewBox="0 0 26 23" fill="none" xmlns="http://www.w3.org/2000/svg">
<path d="M13.0013 21.1229C20.1811 21.1229 26 16.3956 26 10.5614C26 4.72725 20.1811 0 13.0013 0C5.82158 0 0.00263801 4.72725 0.00263801 10.5614C0.00263801 12.8514 0.901375 14.9688 2.42466 16.7003C2.32818 17.9443 1.84581 19.0512 1.33805 19.8941C1.05878 20.3612 0.774435 20.737 0.566253 20.9908C0.459623 21.1178 0.378381 21.2143 0.31745 21.2803C0.286984 21.3107 0.266674 21.3361 0.251441 21.3514L0.236208 21.3666C0.00263801 21.6002 -0.0633709 21.9454 0.0635693 22.2501C0.19051 22.5547 0.485011 22.7528 0.815056 22.7528C2.27233 22.7528 3.73976 22.3009 4.95838 21.7728C6.12116 21.265 7.11129 20.6608 7.71553 20.219C9.33021 20.803 11.1175 21.1279 13.0013 21.1279V21.1229ZM10.3051 7.35238C10.6352 7.24067 11.0007 7.35746 11.214 7.63673L13.0013 10.0181L14.7886 7.63673C14.9968 7.35746 15.3624 7.24067 15.6975 7.35238C16.0327 7.46409 16.251 7.77382 16.251 8.12418V12.9987C16.251 13.4455 15.8854 13.8111 15.4386 13.8111C14.9917 13.8111 14.6262 13.4455 14.6262 12.9987V10.5614L13.6513 11.8613C13.4989 12.0644 13.2552 12.1863 13.0013 12.1863C12.7474 12.1863 12.5037 12.0644 12.3514 11.8613L11.3765 10.5614V12.9987C11.3765 13.4455 11.0109 13.8111 10.5641 13.8111C10.1172 13.8111 9.75165 13.4455 9.75165 12.9987V8.12418C9.75165 7.77382 9.97506 7.46409 10.3051 7.35238ZM19.0944 9.28187V9.30218C19.0995 9.30726 19.1249 9.3428 19.2062 9.3885C19.4042 9.50529 19.6936 9.59668 20.1354 9.73378L20.1658 9.74393C20.5416 9.85564 21.0443 10.008 21.4454 10.2619C21.9074 10.5513 22.3289 11.0336 22.339 11.7801C22.3492 12.5417 21.9531 13.1002 21.4352 13.4201C20.9529 13.7197 20.374 13.8213 19.8764 13.806C19.2569 13.7857 18.673 13.5826 18.2211 13.4303C18.15 13.4049 18.084 13.3846 18.018 13.3592C17.5915 13.217 17.363 12.755 17.5052 12.3335C17.6473 11.9121 18.1094 11.6785 18.5308 11.8207C18.6172 11.8511 18.6984 11.8765 18.7796 11.9019C19.2417 12.0593 19.5717 12.171 19.9272 12.1812C20.1963 12.1913 20.4349 12.1304 20.5771 12.039C20.638 11.9984 20.6685 11.9628 20.6837 11.9375C20.6939 11.9172 20.7142 11.8765 20.7142 11.8004V11.7902C20.7142 11.7547 20.7142 11.7191 20.5771 11.6328C20.3842 11.5109 20.0897 11.4145 19.6631 11.2824L19.6022 11.2621C19.2366 11.1504 18.7543 11.0083 18.3684 10.7747C17.9114 10.5005 17.4696 10.0283 17.4696 9.28187C17.4645 8.51008 17.9063 7.97693 18.409 7.67735C18.8863 7.39808 19.4499 7.29653 19.917 7.3016C20.4248 7.31176 20.9173 7.41839 21.3337 7.52502C21.7653 7.6418 22.0242 8.08356 21.9074 8.52023C21.7907 8.9569 21.3489 9.21078 20.9122 9.094C20.5416 8.99753 20.1963 8.92644 19.8916 8.92136C19.6428 8.91628 19.394 8.97722 19.2366 9.06861C19.1655 9.10923 19.13 9.14985 19.1148 9.17016C19.1046 9.1854 19.0944 9.21079 19.0944 9.26664V9.28187ZM5.28335 9.28187V9.30218C5.28843 9.30726 5.31382 9.3428 5.39506 9.3885C5.59309 9.50529 5.88251 9.59668 6.32426 9.73378L6.35473 9.74393C6.73047 9.85564 7.23315 10.008 7.63429 10.2619C8.09635 10.5513 8.51779 11.0336 8.52794 11.7801C8.5381 12.5417 8.14205 13.1002 7.62413 13.4201C7.14176 13.7197 6.56291 13.8213 6.0653 13.806C5.44076 13.7857 4.83652 13.5775 4.37954 13.4201C4.31353 13.3998 4.2526 13.3795 4.19674 13.3592C3.77022 13.217 3.54173 12.755 3.68391 12.3335C3.82608 11.9121 4.28814 11.6785 4.70958 11.8207C4.78067 11.8461 4.85176 11.8664 4.91776 11.8918C5.40014 12.0542 5.75557 12.1761 6.12116 12.1863C6.39027 12.1964 6.62892 12.1355 6.77109 12.0441C6.83202 12.0035 6.86249 11.9679 6.87772 11.9425C6.88788 11.9222 6.90819 11.8816 6.90819 11.8054V11.7953C6.90819 11.7597 6.90819 11.7242 6.77109 11.6379C6.57814 11.516 6.28364 11.4195 5.85712 11.2875L5.79619 11.2672C5.4306 11.1555 4.94823 11.0133 4.56233 10.7798C4.10535 10.5107 3.66359 10.0384 3.65852 9.29203C3.65344 8.52023 4.09519 7.98708 4.59788 7.6875C5.07517 7.40823 5.63879 7.30668 6.10593 7.31176C6.5883 7.31684 7.23315 7.41839 7.68506 7.53517C8.11666 7.65196 8.37562 8.09371 8.25883 8.53039C8.14205 8.96706 7.70029 9.22094 7.26362 9.10416C6.9285 9.01276 6.41058 8.93659 6.08054 8.93152C5.83173 8.92644 5.58293 8.98737 5.42553 9.07877C5.35444 9.11939 5.3189 9.16001 5.30366 9.18032C5.29351 9.19555 5.28335 9.22094 5.28335 9.27679V9.28187Z" fill="#4DB047"/>
</svg>
