<svg xmlns="http://www.w3.org/2000/svg" viewBox="0 0 96.9 25.81"><defs><style>.cls-1{fill:#1d3d71;}.cls-2{fill:#4eb048;}</style></defs><title>Asset 3</title><g id="Layer_2" data-name="Layer 2"><g id="Layer_1-2" data-name="Layer 1"><path class="cls-1" d="M20,4.34c-2.11,0-4.88,4.71-4.85,6.82s2.63,2.13,4.74,2.1,4.39-.73,4.37-2.84S22.11,4.31,20,4.34Z"/><path class="cls-1" d="M18.56,14.73c-2.36.64-4.09,6.82-3.43,9.24s2.74-.64,5.1-1.29,4.74-2.1,4.08-4.52A4.92,4.92,0,0,0,18.56,14.73Z"/><path class="cls-2" d="M10.63,13.7a7.5,7.5,0,0,1-3-1.11A28,28,0,0,1,2.4,8.66,30.25,30.25,0,0,0,0,6.43H0c3.73,7.29,10.19,8.7,12.93,19.38.58-10.35,3.46-9.62,4.56-16.22a14.48,14.48,0,0,1-2.44,2.56,6.28,6.28,0,0,1-4.42,1.55"/><path class="cls-1" d="M13.29.72A3,3,0,0,0,11.71.05c-2.79-.39-8.5,1.6-8.89,4.39s5.23,7.39,8,7.78,3.34-3,3.73-5.82C14.87,4.25,14.67,1.87,13.29.72ZM11.73,11.39a2.07,2.07,0,0,1-2.59-1.23,2.09,2.09,0,0,1,1.21-2.57A2.1,2.1,0,0,1,13,8.79,2.07,2.07,0,0,1,11.73,11.39Z"/><path class="cls-2" d="M10.35,7.59a2.09,2.09,0,0,0-1.21,2.57A2,2,0,1,0,13,8.79,2.1,2.1,0,0,0,10.35,7.59Z"/><path class="cls-1" d="M29.67,10.53C32.59,8,34.44,6.38,34.44,5a1.53,1.53,0,0,0-1.75-1.6,3,3,0,0,0-2,1l-1.07-.93A4.56,4.56,0,0,1,33,2c2,0,3.34,1.13,3.34,2.85s-1.74,3.36-3.85,5.3c.56-.05,1.26-.09,1.77-.09H36.8v1.43H29.67Z"/><path class="cls-1" d="M38.36,6.75a4.75,4.75,0,0,1,5-5A4.58,4.58,0,0,1,46.46,3l-1,1.1a3,3,0,0,0-2.06-.83c-1.76,0-3,1.31-3,3.46s1.17,3.51,3,3.51a3.22,3.22,0,0,0,2.31-1l1,1.07a4.59,4.59,0,0,1-3.42,1.39A4.63,4.63,0,0,1,38.36,6.75Z"/><path class="cls-1" d="M51.82,1.94h1.92V5.78h4.39V1.94h1.93v9.57H58.13V7.26H53.74v4.25H51.82Z"/><path class="cls-1" d="M62.12,7.92a3.71,3.71,0,0,1,3.76-3.78,3.13,3.13,0,0,1,3.37,3.41,4,4,0,0,1-.08.82H64a2.22,2.22,0,0,0,2.4,2,3.83,3.83,0,0,0,1.9-.53l.65,1.05a5.48,5.48,0,0,1-2.8.78A3.7,3.7,0,0,1,62.12,7.92Zm5.48-.69a1.56,1.56,0,0,0-1.68-1.78,1.94,1.94,0,0,0-2,1.78Z"/><path class="cls-1" d="M70.44,9.57c0-1.54,1.45-2.34,4.8-2.65A1.32,1.32,0,0,0,73.76,5.5a4.84,4.84,0,0,0-2.29.71l-.71-1.13a7,7,0,0,1,3.35-.94c2,0,3,1.11,3,3.11v4.26H75.58l-.14-.8h-.06a4.19,4.19,0,0,1-2.53,1A2.17,2.17,0,0,1,70.44,9.57Zm4.8,0V8c-2.21.25-2.95.76-2.95,1.49s.49.91,1.17.91A2.74,2.74,0,0,0,75.24,9.58Z"/><path class="cls-1" d="M79.45,9.66V1.17h1.91V9.74c0,.42.22.57.42.57a1.17,1.17,0,0,0,.29,0l.24,1.25a2.78,2.78,0,0,1-1,.15C80,11.68,79.45,10.91,79.45,9.66Z"/><path class="cls-1" d="M84.24,9.08V5.66H83.08V4.39l1.26-.07.22-2h1.59v2h2.08V5.66H86.15V9.08c0,.84.37,1.26,1.16,1.26a3,3,0,0,0,.85-.16l.32,1.24a5.85,5.85,0,0,1-1.67.26A2.29,2.29,0,0,1,84.24,9.08Z"/><path class="cls-1" d="M90,1.17h1.91V3.84l-.08,1.39a4,4,0,0,1,2.61-1.09c1.75,0,2.51,1,2.51,2.86v4.51H95V7.21C95,6,94.6,5.59,93.72,5.59a2.69,2.69,0,0,0-1.86.89v5H90Z"/><path class="cls-2" d="M37.32,16.85h-.53l-.09-1.09a1.93,1.93,0,0,0-.78-.57,2.94,2.94,0,0,0-1.16-.2,2.38,2.38,0,0,0-1.49.41,1.28,1.28,0,0,0-.53,1,1.22,1.22,0,0,0,.48,1,4.47,4.47,0,0,0,1.67.69,4.88,4.88,0,0,1,1.9.86,1.78,1.78,0,0,1,.65,1.43,1.71,1.71,0,0,1-.76,1.47,3.15,3.15,0,0,1-1.93.55,4.14,4.14,0,0,1-1.54-.29,3,3,0,0,1-1.16-.84V19.93h.52l.09,1.13a2.26,2.26,0,0,0,.9.6,3.31,3.31,0,0,0,1.19.21,2.47,2.47,0,0,0,1.48-.4,1.26,1.26,0,0,0,.57-1.07,1.29,1.29,0,0,0-.47-1,4.3,4.3,0,0,0-1.65-.71,5.38,5.38,0,0,1-1.93-.83,1.67,1.67,0,0,1-.65-1.38A1.75,1.75,0,0,1,32.84,15a3.15,3.15,0,0,1,1.92-.56,3.6,3.6,0,0,1,1.51.3,2.65,2.65,0,0,1,1,.79Z"/><path class="cls-2" d="M40.65,19.34a3.07,3.07,0,0,1,.7-2.09,2.51,2.51,0,0,1,3.69,0,3.07,3.07,0,0,1,.7,2.09v.17a3.12,3.12,0,0,1-.69,2.09,2.52,2.52,0,0,1-3.7,0,3.07,3.07,0,0,1-.7-2.09Zm.64.17a2.71,2.71,0,0,0,.51,1.68,1.78,1.78,0,0,0,2.8,0,2.77,2.77,0,0,0,.5-1.68v-.17a2.7,2.7,0,0,0-.51-1.67,1.76,1.76,0,0,0-2.79,0,2.7,2.7,0,0,0-.51,1.67Z"/><path class="cls-2" d="M48.72,14.48V14h1.5v7.76l.87.07v.47H48.72v-.47l.87-.07V14.54Z"/><path class="cls-2" d="M58.5,21.35a1.92,1.92,0,0,1-.74.78,2.13,2.13,0,0,1-1.11.28,1.78,1.78,0,0,1-1.43-.62,3,3,0,0,1-.51-1.91V17.09L54,17v-.48h1.34v3.35a2.48,2.48,0,0,0,.36,1.51,1.24,1.24,0,0,0,1,.46,1.89,1.89,0,0,0,1.15-.32,1.72,1.72,0,0,0,.61-.89V17.09L57.66,17v-.48h1.45v5.22l.77.07v.47H58.56Z"/><path class="cls-2" d="M64.46,15.07v1.47h1.27v.53H64.46v3.74a1.24,1.24,0,0,0,.2.8.69.69,0,0,0,.55.24h.3l.34-.05.09.48a1.6,1.6,0,0,1-.38.1,2.45,2.45,0,0,1-.46,0,1.22,1.22,0,0,1-.95-.38,1.85,1.85,0,0,1-.33-1.22V17.07h-1v-.53h1V15.07Z"/><path class="cls-2" d="M69,21.83l.87-.07V17.09L69,17v-.48h1.5v5.22l.87.07v.47H69Zm1.5-6.93H69.9V14h.63Z"/><path class="cls-2" d="M74.64,19.34a3.12,3.12,0,0,1,.7-2.09,2.3,2.3,0,0,1,1.84-.81,2.35,2.35,0,0,1,1.86.81,3.12,3.12,0,0,1,.69,2.09v.17A3.12,3.12,0,0,1,79,21.6a2.52,2.52,0,0,1-3.7,0,3.12,3.12,0,0,1-.7-2.09Zm.64.17a2.71,2.71,0,0,0,.51,1.68,1.78,1.78,0,0,0,2.8,0,2.7,2.7,0,0,0,.5-1.68v-.17a2.76,2.76,0,0,0-.5-1.67A1.66,1.66,0,0,0,77.18,17a1.62,1.62,0,0,0-1.39.69,2.7,2.7,0,0,0-.51,1.67Z"/><path class="cls-2" d="M82.83,21.83l.87-.07V17.09L82.83,17v-.48h1.43l.06,1a1.93,1.93,0,0,1,.75-.82,2,2,0,0,1,1.11-.29A1.76,1.76,0,0,1,87.6,17a2.68,2.68,0,0,1,.49,1.78v3l.87.07v.47H86.59v-.47l.86-.07v-3a2.12,2.12,0,0,0-.36-1.4A1.36,1.36,0,0,0,86,17a1.69,1.69,0,0,0-1.1.35,2.05,2.05,0,0,0-.61.94v3.48l.87.07v.47H82.83Z"/><path class="cls-2" d="M96.31,18.32h-.52l-.07-.81a1.6,1.6,0,0,0-.61-.39,2.38,2.38,0,0,0-.84-.14,1.56,1.56,0,0,0-1,.3.92.92,0,0,0-.35.71.82.82,0,0,0,.3.65,2.81,2.81,0,0,0,1.2.46,3.84,3.84,0,0,1,1.54.63,1.28,1.28,0,0,1,.51,1.07A1.4,1.4,0,0,1,95.85,22a2.47,2.47,0,0,1-1.54.45,3.59,3.59,0,0,1-1.17-.18,2.91,2.91,0,0,1-.9-.5V20.57h.51l.09.82a1.54,1.54,0,0,0,.65.37,3.12,3.12,0,0,0,.82.11,1.78,1.78,0,0,0,1.09-.3.92.92,0,0,0,.4-.74.94.94,0,0,0-.34-.7,2.73,2.73,0,0,0-1.2-.5A4,4,0,0,1,92.74,19a1.22,1.22,0,0,1-.5-1,1.42,1.42,0,0,1,.56-1.12,2.26,2.26,0,0,1,1.47-.45,3.28,3.28,0,0,1,1.16.19,2.33,2.33,0,0,1,.85.53Z"/></g></g></svg>