           <svg   xmlns="http://www.w3.org/2000/svg"  width="60" viewBox="0 0 511.91323 494.34597"><g id="Layer_2" data-name="Layer 2"><g id="Layer_1-2" data-name="Layer 1"><path d="M503.30638,102.4l-.883-.883c-11.476-11.476-31.779-11.476-43.255,0l-45.903,46.786a5.89819,5.89819,0,0,1-8.828,0l-64.442-60.027a35.29064,35.29064,0,0,0-22.952-8.828h-96.221a7.46355,7.46355,0,0,0-5.297,1.766l-81.214,77.683c-11.476,12.359-12.359,31.779-1.766,43.255a29.93432,29.93432,0,0,0,44.138,0l57.379-60.91h20.303L120.18838,291.31h-82.979c-20.303,0-36.193,15.007-37.076,33.545a33.2506,33.2506,0,0,0,9.71,26.483c7.062,6.179,15.89,10.593,25.6,10.593h123.587a8.01444,8.01444,0,0,0,6.179-2.648l63.559-67.972,52.965,55.614-15.89,102.4a35.80934,35.80934,0,0,0,19.421,41.49,31.19346,31.19346,0,0,0,15.007,3.531,34.6285,34.6285,0,0,0,15.89-3.531c8.828-4.414,15.89-13.241,18.538-23.835l27.365-147.421c0-2.648-.883-6.179-2.648-7.945l-73.269-73.269,58.262-58.262,40.607,40.607a30.378,30.378,0,0,0,42.372,0l75.917-75.917A30.37823,30.37823,0,0,0,503.30638,102.4Zm-12.359,30.014-75.917,75.917c-5.297,4.414-13.241,4.414-17.655,0l-46.786-46.786a8.53385,8.53385,0,0,0-12.359,0l-70.621,70.621a8.01255,8.01255,0,0,0-2.648,6.179c0,2.648.883,4.414,3.531,7.062l75.917,75.917-26.483,142.124a24.41244,24.41244,0,0,1-9.71,11.476c-4.414,1.766-9.71,2.648-15.007,0-7.945-3.531-11.476-12.359-9.71-22.069l16.772-107.697a10.0252,10.0252,0,0,0-2.648-7.062l-62.676-65.324a8.01261,8.01261,0,0,0-6.179-2.648c-2.648,0-5.297.883-6.179,2.648l-67.09,71.503H35.44438a17.96432,17.96432,0,0,1-13.241-5.297,21.685,21.685,0,0,1-4.414-13.241c0-9.71,8.828-16.772,19.421-16.772h86.51c2.648,0,4.414-.883,6.179-.883l150.069-167.724c2.648-2.648,2.648-6.179,1.766-9.71-.883-3.531-4.414-5.297-7.945-5.297h-44.138a9.53538,9.53538,0,0,0-6.179,2.648l-60.028,63.559a10.86716,10.86716,0,0,1-8.828,4.414,14.17589,14.17589,0,0,1-9.71-4.414,13.652,13.652,0,0,1,.883-18.538l78.566-75.034h93.572a16.28783,16.28783,0,0,1,10.593,4.414l64.441,60.028a24.5508,24.5508,0,0,0,33.545-.883l45.904-46.786c4.414-4.414,13.241-4.414,17.655,0l.883.883A12.27775,12.27775,0,0,1,490.94737,132.414Z"/><path d="M406.20237,105.931a52.9655,52.9655,0,1,0-52.966-52.965A53.12145,53.12145,0,0,0,406.20237,105.931Zm0-88.276a35.31,35.31,0,1,1-35.31,35.31A35.41381,35.41381,0,0,1,406.20237,17.655Z"/></g></g></svg>
