            <svg xmlns="http://www.w3.org/2000/svg" width="60" viewBox="0 0 469.33284 512"><g id="Layer_2" data-name="Layer 2"><g id="Layer_1-2" data-name="Layer 1"><path d="M42.65625,426.668h68.26953v25.59766A59.79887,59.79887,0,0,0,170.65625,512H332.793a59.79887,59.79887,0,0,0,59.73047-59.73437V438.81641c26.207-9.88672,48.32422-34.5,61.99609-67.47266a8.27736,8.27736,0,0,0,1-2.38672,201.7289,201.7289,0,0,0,13.65235-69.92187c0-.12891.07421-.24219.07421-.36719,0-.12891-.05078-.17188-.05078-.25781,0-1.34766.13672-2.65235.13672-4.01172a205.841,205.841,0,0,0-10.57812-65.707,9.05155,9.05155,0,0,0-.73438-2.21485c-13.20312-37.48828-36.93359-65.707-65.48437-76.49609V42.668A42.72113,42.72113,0,0,0,349.86719,0H42.668A42.7161,42.7161,0,0,0,0,42.668V384A42.71865,42.71865,0,0,0,42.65625,426.668Zm0-17.06641A25.6016,25.6016,0,0,1,17.05859,384V102.39844H281.58984A25.60243,25.60243,0,0,1,307.19141,128v45.35547a148.5761,148.5761,0,0,0-31.34375,53.10937,8.16918,8.16918,0,0,0-.74219,2.25391,205.71882,205.71882,0,0,0-10.582,65.707c0,1.34766.12109,2.65235.13672,3.99219,0,.09375-.05078.17969-.05078.27344s.07031.25781.07812.38672a201.58209,201.58209,0,0,0,13.65234,69.8789,8.30715,8.30715,0,0,0,1.01563,2.42969,149.75019,149.75019,0,0,0,22.09375,37.70312,8.41209,8.41209,0,0,1-2.793.51172H162.125V390.96484a25.603,25.603,0,0,0,17.06641-24.03125v-32.1289a68.109,68.109,0,0,0,5.71875-101.3086c-.03516-.05859-.07422-.11328-.11328-.168-.05079-.05079-.11719-.0625-.168-.11329a68.13581,68.13581,0,0,0-96.207,0c-.05079.05079-.11719.0625-.17188.11329a1.54462,1.54462,0,0,1-.10937.168,68.10111,68.10111,0,0,0,5.71875,101.3086v32.1289a25.603,25.603,0,0,0,17.0664,24.03125v18.63672Zm298.668-259.62109a83.11375,83.11375,0,0,0-17.06641,8.84375V128a42.72113,42.72113,0,0,0-42.668-42.668H51.19141V51.19922H341.32422Zm-255.25,123.23828a50.86162,50.86162,0,0,1,8.85937-21.332A8.40458,8.40458,0,0,0,106.78516,240.043a50.735,50.735,0,0,1,21.33593-8.85938,8.40443,8.40443,0,0,0,16.75782,0,50.6985,50.6985,0,0,1,21.332,8.85938,8.39764,8.39764,0,0,0,11.85547,11.84375,51.00689,51.00689,0,0,1,8.85547,21.332,8.40654,8.40654,0,0,0,0,16.76172,51.13189,51.13189,0,0,1-100.90625,0,8.40654,8.40654,0,0,0,0-16.76172ZM119.457,375.46484a8.5322,8.5322,0,0,1-8.53125-8.53125V344.83984a67.69119,67.69119,0,0,0,51.19922,0v22.09375a8.533,8.533,0,0,1-8.53516,8.53125ZM162.125,426.668H298.65625a25.41966,25.41966,0,0,0,14.88281-5.07813,88.79583,88.79583,0,0,0,27.78516,17.22657v13.44922a8.533,8.533,0,0,1-8.53125,8.53515H170.65625a8.533,8.533,0,0,1-8.53125-8.53515Zm213.332,25.59766a42.71527,42.71527,0,0,1-42.66406,42.668H170.65625a42.71527,42.71527,0,0,1-42.66406-42.668V392.53516h17.0664v59.73047a25.5991,25.5991,0,0,0,25.59766,25.60156H332.793a25.5991,25.5991,0,0,0,25.59766-25.60156v-9.16407a57.84964,57.84964,0,0,0,17.0664,0Zm62.72266-230.39844H367.35156a8.5332,8.5332,0,1,0,0,17.0664h76.9375A175.70686,175.70686,0,0,1,448.55469,256H358.81641a8.53321,8.53321,0,0,0,0,17.06641h92.23047q.85546,8.373,1.07421,17.0664H358.81641a8.53321,8.53321,0,0,0,0,17.06641H451.832c-.35937,5.82031-1.02344,11.49609-1.85937,17.06641H358.81641a8.5332,8.5332,0,0,0,0,17.0664h87.793a173.85461,173.85461,0,0,1-5.0625,17.06641H367.35156a8.5332,8.5332,0,1,0,0,17.0664h66.85938c-15.66016,31.08985-39.94531,51.20313-67.28516,51.20313A65.69917,65.69917,0,0,1,320.21484,404.957a8.97289,8.97289,0,0,0-1.13671-1.10937,117.96746,117.96746,0,0,1-19.42969-28.38282h33.57031a8.5332,8.5332,0,0,0,0-17.0664H292.25781a173.83036,173.83036,0,0,1-5.05859-17.06641h37.48437a8.5332,8.5332,0,1,0,0-17.0664h-40.8125c-.85546-5.57032-1.49609-11.2461-1.86328-17.06641h42.668a8.53321,8.53321,0,1,0,0-17.06641h-42.9375c.11719-5.793.48438-11.48437,1.06641-17.0664h41.8789a8.53321,8.53321,0,1,0,0-17.06641H285.28516c1.16015-5.88672,2.6289-11.55469,4.26953-17.06641h43.66406a8.5332,8.5332,0,0,0,0-17.0664H295.67188a120.74111,120.74111,0,0,1,25.99218-39.36328l.17969-.17188a64.8505,64.8505,0,0,1,45.082-20.19922C396.707,162.13281,422.92969,185.93359,438.17969,221.86719ZM42.65625,17.06641H349.85938A25.59909,25.59909,0,0,1,375.457,42.668V145.69922a57.84964,57.84964,0,0,0-17.0664,0V42.668a8.533,8.533,0,0,0-8.53125-8.53516H42.65625A8.533,8.533,0,0,0,34.125,42.668V85.332H17.05859V42.668A25.5991,25.5991,0,0,1,42.65625,17.06641Z"/><path d="M136.52344,315.73438a8.53387,8.53387,0,0,0,8.53515-8.53516V264.53516a8.5332,8.5332,0,1,0-17.0664,0v42.66406A8.533,8.533,0,0,0,136.52344,315.73438Z"/></g></g></svg>