<svg xmlns="http://www.w3.org/2000/svg" width="24.281" height="41" viewBox="0 0 24.281 41"><defs><style>.a{fill:#445760;}.b{fill:#4eaf48;}</style></defs><path class="a" d="M98.587-30.823c2.806,0,5.614.07,8.416-.024a3.647,3.647,0,0,1,3.688,3.7c-.025,2.4-.005,4.8-.005,7.2,0,2.318.032,4.637-.007,6.955a11.793,11.793,0,0,1-6.807,10.985.475.475,0,0,0-.268.514c0,2.235.021,4.47-.008,6.705a4.894,4.894,0,0,1-3,4.632,4.366,4.366,0,0,1-1.3.287c-.339.045-.689,0-1.033.011a4.434,4.434,0,0,1-4.17-2.6,4.619,4.619,0,0,1-.56-2.333c0-2.2-.009-4.4,0-6.6a.656.656,0,0,0-.409-.684,11.709,11.709,0,0,1-6.671-10.782c-.073-4.742-.019-9.487-.015-14.23a3.62,3.62,0,0,1,2.5-3.6,3.706,3.706,0,0,1,1.089-.127C92.881-30.827,95.734-30.823,98.587-30.823ZM88.875-19.561c0,2.163-.005,4.327,0,6.49a12.157,12.157,0,0,0,.085,1.529A9.6,9.6,0,0,0,101.173-3.6a9.4,9.4,0,0,0,7.071-9.262c.018-4.719.005-9.438,0-14.157,0-1.011-.442-1.444-1.465-1.444H90.343c-1.03,0-1.467.44-1.468,1.48Q88.873-23.269,88.875-19.561Zm10.9,27.109c.183-.115.3-.172.392-.25a2.536,2.536,0,0,0,1-2.039c.008-2,0-3.991.008-5.987,0-.277-.085-.345-.358-.3a13.019,13.019,0,0,1-4.5.007c-.244-.042-.351,0-.35.27.005,2.031-.01,4.062.007,6.093a2.487,2.487,0,0,0,1.091,2.027,1.751,1.751,0,0,0,.287.133c0-.189,0-.318,0-.446,0-.938.006-1.877,0-2.815,0-.242.072-.34.325-.334.558.013,1.117.021,1.674-.007.35-.018.443.106.436.444C99.762,5.379,99.775,6.412,99.775,7.548Z" transform="translate(-86.417 30.849)"/><path class="b" d="M166.708,34.755c2.13,0,4.26.007,6.39-.007.345,0,.468.081.466.459-.013,2.936,0,5.871,0,8.807,0,.469,0,.47-.475.47l-12.745,0c-.458,0-.463,0-.463-.482q0-4.385,0-8.771c0-.468.005-.473.476-.474q3.177,0,6.355,0Zm0,7.266c1.354,0,2.707-.007,4.061.005.289,0,.388-.086.385-.388q-.02-2.021,0-4.043c0-.3-.1-.388-.386-.388q-4.043.013-8.086,0c-.307,0-.408.087-.4.408q.024,2,0,4.007c0,.324.1.41.4.406C164.025,42.013,165.367,42.021,166.709,42.021Z" transform="translate(-154.569 -30.01)"/><path class="b" d="M177.009,201.861h3.346a2.637,2.637,0,0,1,2.559,3.389c-1.17,4.023-5.7,6.08-9.327,3.575a6.556,6.556,0,0,1-2.5-3.361,2.675,2.675,0,0,1,2.468-3.6C174.708,201.852,175.859,201.861,177.009,201.861Zm1.168,5.327a3.946,3.946,0,0,0,2.411-2.522c.037-.207-.03-.338-.245-.339-.646,0-1.291-.006-1.937.011-.078,0-.219.125-.22.194C178.172,205.408,178.177,206.284,178.177,207.189Zm-2.4.037c0-.951.006-1.825-.011-2.7,0-.07-.162-.19-.253-.194-.456-.02-.913.009-1.369-.014-1.061-.054-.881.221-.526.936A3.9,3.9,0,0,0,175.773,207.226Z" transform="translate(-164.828 -185.308)"/></svg>