<svg xmlns="http://www.w3.org/2000/svg" width="32.592" height="32.6" viewBox="0 0 32.592 32.6"><defs><style>.a{fill:#445760;}.b{fill:#4eaf48;}</style></defs><path class="a" d="M25.272,8.916a7.384,7.384,0,0,0-.955,14.707V24.74a5.95,5.95,0,1,1-11.9,0V16.1h.259a2.868,2.868,0,0,0,2.865-2.865V2.865A2.868,2.868,0,0,0,12.675,0H2.929A2.868,2.868,0,0,0,.064,2.865V13.234A2.868,2.868,0,0,0,2.929,16.1h.294v2.811H3.216a.955.955,0,0,0,0,1.91h.008V23a4.042,4.042,0,0,0-3.08,3.92v1.647a4.035,4.035,0,1,0,8.071,0V26.918A4.042,4.042,0,0,0,5.134,23V20.821h.008a.955.955,0,0,0,0-1.91H5.134V16.1h5.372V24.74a7.86,7.86,0,1,0,15.72,0V23.623a7.384,7.384,0,0,0-.955-14.707ZM6.3,26.918v1.647a2.125,2.125,0,1,1-4.25,0V26.918a2.125,2.125,0,0,1,4.25,0ZM2.929,14.189a.956.956,0,0,1-.955-.955V2.865a.956.956,0,0,1,.955-.955h9.746a.956.956,0,0,1,.955.955V13.234a.956.956,0,0,1-.955.955Zm22.342,7.585A5.474,5.474,0,1,1,30.746,16.3,5.48,5.48,0,0,1,25.272,21.774Z" transform="translate(-0.064)"/><path class="b" d="M381.917,202.125a.955.955,0,0,0-.955.955v2.475a.955.955,0,1,0,1.91,0V203.08A.955.955,0,0,0,381.917,202.125Z" transform="translate(-356.709 -189.255)"/><path class="b" d="M65.45,64.52a.956.956,0,0,0-1.652.208c-.264.647-.592,1.449-.9,2.212-.252-1.1-.532-2.341-.759-3.364a.955.955,0,0,0-.932-.748H59.8a.955.955,0,1,0,0,1.91h.635c.224,1,.948,4.231,1.216,5.213a1.113,1.113,0,0,0,.841.959.96.96,0,0,0,.973-.421c.054-.083.105-.162,1.459-3.471l.189.255a.955.955,0,1,0,1.534-1.138Z" transform="translate(-55.103 -58.828)"/></svg>