<?xml version="1.0" encoding="utf-8"?>
<!-- Generator: Adobe Illustrator 25.0.0, SVG Export Plug-In . SVG Version: 6.00 Build 0)  -->
<svg version="1.1" id="Layer_1" xmlns="http://www.w3.org/2000/svg" xmlns:xlink="http://www.w3.org/1999/xlink" x="0px" y="0px"
	 viewBox="0 0 378.7 529.8" style="enable-background:new 0 0 378.7 529.8;" xml:space="preserve">
<style type="text/css">
	.st0{fill:#4EAF48;}
	.st1{fill:none;stroke:#4EAF48;stroke-width:27;stroke-miterlimit:10;}
	.st2{fill:#445760;}
</style>
<path class="st0" d="M149.7,530.8c26.4-0.4,52.9-0.4,79.3,0c4.1,0,7.8-0.4,11.2-1.5H138.3C141.7,530.4,145.5,530.9,149.7,530.8z"/>
<g>
	<g>
		<path class="st1" d="M64.4,22.6c-23.8,0-43.4,17.1-43,43.6c0.8,70.6,0.3,85.2,0.3,155.8v95.8c0,40.2-0.1,80.5,0.1,120.7
			c0.1,23.3,16,39.4,38.9,39.8c2.3,0,4.6,0.1,6.9,0.1c5.2,0,10.4-0.1,15.6-0.1c1.3,0,2.7,0,4,0c0.2,0,0.5,0,0.7,0
			c18.3,0,32.6-7.1,41.9-23.5c6.3-11.2,16-16,28.6-16c0.4,0,0.7,0,1.1,0c10,0.2,20,0.4,30,0.4c7.9,0,15.8-0.1,23.7-0.5
			c1.2-0.1,2.3-0.1,3.4-0.1c15.3,0,26.7,5.7,34.6,20c5.9,10.8,16,17.3,28.2,18.6c11.8,1.2,23.8,1.1,35.8,1.1h0.1
			c25.4,0,41.5-16.4,41.5-42.1c0-142,0-227.9,0-369.9c0-27.9-15.5-43.3-43.4-43.3c-45.5,0-91,0.2-136.5,0.2
			c-37.3,0-74.7-0.1-112-0.5C64.7,22.6,64.5,22.6,64.4,22.6L64.4,22.6z"/>
	</g>
</g>
<path class="st2" d="M378.6,222.2c0-71,0-86.1,0-157.1C378.6,26.8,353,1,314.9,1C231.1,1,147.4,1,63.7,1C25.9,1.1,0.2,26.8,0,64.5
	c0,22.5,0,45.1,0,67.7C0,252,0,315.7,0,435.5c0,38.7,25.6,64.1,64.4,64.3c10.1,0.1,20.2,0.3,30.3,0.8c12.2,0.6,22,5.8,28.3,16.4
	c3.9,6.5,9,10.5,15.3,12.4h101.9c6.3-1.9,11.5-5.9,15.4-12.5c6.4-10.6,16.3-15.6,28.4-16.4c7.5-0.5,15-0.5,22.5-0.8
	c7.8-0.3,15.7,0.3,23.2-1.2c28.9-5.7,48.7-30.2,48.8-60C378.7,366.3,378.6,294.3,378.6,222.2z M356.7,435.7
	c0,25.7-16.1,42.1-41.5,42c-11.9,0-23.9,0.1-35.7-1.1c-12.2-1.3-22.3-7.7-28.2-18.5c-8.4-15.3-20.9-20.8-37.9-19.9
	c-17.8,0.9-35.8,0.5-53.7,0.1c-13.1-0.3-23.2,4.5-29.7,16c-9.4,16.6-23.9,23.7-42.5,23.5c-8.8-0.1-17.6,0.2-26.4,0
	c-22.9-0.4-38.8-16.4-38.9-39.7c-0.2-40.2-0.1-80.4-0.1-120.6v-95.7c0-70.5,0.6-85-0.3-155.6c-0.3-26.7,19.5-43.8,43.5-43.6
	C148,23.5,230.7,23,313.4,23c27.8,0,43.3,15.4,43.3,43.3C356.7,208.1,356.7,293.9,356.7,435.7z"/>
<path class="st0" d="M187.8,87.3c31.5,0,63,0.1,94.5-0.1c5.1,0,6.9,1.2,6.9,6.7c-0.1,43.5,0,86.8,0,130.3c0,6.9,0,6.9-7,6.9H93.6
	c-6.7,0-6.9,0-6.9-7.2c0-43.2,0-86.5,0-129.7c0-6.9,0.1-7,7-7C125.2,87.3,156.5,87.3,187.8,87.3L187.8,87.3z M187.8,194.8
	c20,0,40.1-0.1,60.1,0.1c4.3,0,5.8-1.2,5.7-5.8c-0.1-20-0.1-39.8,0-59.8c0-4.5-1.5-5.8-5.7-5.8c-39.8,0.1-79.8,0.1-119.6,0
	c-4.6,0-6.1,1.3-5.9,6.1c0.3,19.7,0.3,39.4,0,59.3c0,4.7,1.5,6.1,5.9,5.9C148.1,194.6,167.9,194.8,187.8,194.8L187.8,194.8z"/>
<path class="st0" d="M188.5,263.2h46.8c20.4-0.3,37.1,16.1,37.4,36.4c0,3.8-0.4,7.4-1.5,10.9c-16.3,56.4-79.9,85.2-130.7,50.1
	c-16.5-11.5-28.8-27.9-35.1-47.1c-7.2-19.4,2.8-41,22.1-48.2c3.9-1.5,8.1-2.3,12.4-2.3C156.2,263.1,172.4,263.2,188.5,263.2z
	 M204.8,337.7c16.2-5.9,28.6-18.9,33.7-35.4c0.5-2.8-0.4-4.7-3.4-4.7c-9,0-18.1-0.1-27.1,0.1c-1.1,0-3.1,1.8-3.1,2.7
	C204.8,312.9,204.8,325.2,204.8,337.7L204.8,337.7z M171.2,338.3c0-13.4,0.1-25.5-0.1-37.8c0-0.9-2.3-2.7-3.5-2.7
	c-6.3-0.3-12.8,0.1-19.2-0.1c-14.8-0.8-12.3,3.1-7.4,13.1C147,323.4,158,333.4,171.2,338.3L171.2,338.3z"/>
</svg>
