<svg xmlns="http://www.w3.org/2000/svg" width="28.938" height="31" viewBox="0 0 28.938 31"><defs><style>.a{fill:#4eaf48;}.b{fill:#445760;}</style></defs><path class="a" d="M92.559,63.3h0A14.083,14.083,0,0,0,82.1,68.022a.844.844,0,0,0,0,1.151l5.024,5.491a.943.943,0,0,0,.7.3H97.3a.943.943,0,0,0,.7-.3l5.024-5.491a.844.844,0,0,0,0-1.151A14.083,14.083,0,0,0,92.559,63.3Zm-.542,9.911.542-1.116.542,1.116Zm4.861,0H95.132L93.4,69.637a.943.943,0,0,0-1.674,0l-1.736,3.575H88.239l-4.207-4.6A13.136,13.136,0,0,1,85.7,67.233l.794.905a.956.956,0,0,0,1.3.112.847.847,0,0,0,.118-1.235l-.63-.719a11.844,11.844,0,0,1,4.357-1.206v1.08a.923.923,0,0,0,1.844,0V65.09A11.843,11.843,0,0,1,97.838,66.3l-.63.719a.847.847,0,0,0,.118,1.235.956.956,0,0,0,1.3-.112l.794-.905a13.136,13.136,0,0,1,1.667,1.381Z" transform="translate(-78.09 -59.607)"/><path class="b" d="M44.254,2.2A6.662,6.662,0,0,0,39.314,0H23.679a6.652,6.652,0,0,0-6.616,7.339l1.839,17.7A6.636,6.636,0,0,0,25.518,31H37.475a6.636,6.636,0,0,0,6.616-5.964L45.93,7.34A6.663,6.663,0,0,0,44.254,2.2ZM44.12,7.151l-1.839,17.7a4.821,4.821,0,0,1-4.807,4.333H32.406V23.724a.91.91,0,0,0-1.819,0v5.456H25.518a4.821,4.821,0,0,1-4.807-4.333l-1.839-17.7a4.833,4.833,0,0,1,4.807-5.332H39.314A4.832,4.832,0,0,1,44.12,7.151Z" transform="translate(-17.027)"/></svg>