            <svg  xmlns="http://www.w3.org/2000/svg"  width="60" viewBox="0 0 512.00036 512.00045"><g id="Layer_2" data-name="Layer 2"><g id="Layer_1-2" data-name="Layer 1"><path d="M384.00036.00045a128.08979,128.08979,0,0,0-126.293,108.07422,34.071,34.071,0,0,0-35.83984-1.11719v-21.625a34.13229,34.13229,0,0,0-51.19922-29.57422v-21.625A34.13213,34.13213,0,0,0,136.53552.00045a33.54651,33.54651,0,0,0-24.05859,9.98438,33.61636,33.61636,0,0,0-10.07422,24.14843v30.1836a33.84792,33.84792,0,0,0-17.07032-4.582A34.24529,34.24529,0,0,0,51.19958,93.86764v95.57422A44.91359,44.91359,0,0,0,23.16052,179.645a22.54218,22.54218,0,0,0-16.21484,6.73438A22.69661,22.69661,0,0,0,.00036,202.84811v95.08594a132.59051,132.59051,0,0,0,41.0625,96.23046A141.39108,141.39108,0,0,0,59.73474,409.7192v76.6836a25.59827,25.59827,0,0,0,25.59765,25.59765H221.86755a25.6016,25.6016,0,0,0,25.60156-25.59765V404.48092a95.46747,95.46747,0,0,0,20.75-35.35547c.51172,2.19531.85547,4.41406,1.4336,6.60547a117.00279,117.00279,0,0,0,80.21484,84.01172V486.4028a25.5991,25.5991,0,0,0,25.60156,25.59765h17.06641a25.59827,25.59827,0,0,0,25.59766-25.59765V459.87155A117.34729,117.34729,0,0,0,498.348,375.73092a460.70645,460.70645,0,0,0,13.65234-111.19531V128.00045A128.00134,128.00134,0,0,0,384.00036.00045Zm-128,338.89453a78.94729,78.94729,0,0,1-22.58593,55.53516,9.18407,9.18407,0,0,0-.85547.80078A79.04776,79.04776,0,0,1,194.348,416.18014a8.53341,8.53341,0,1,0,3.76953,16.64062,96.71576,96.71576,0,0,0,32.28516-13.832V486.4028a8.533,8.533,0,0,1-8.53516,8.53125H85.33239a8.53221,8.53221,0,0,1-8.53125-8.53125V419.96139a138.25353,138.25353,0,0,0,32.27344,11.67187,8.537,8.537,0,1,0,3.71875-16.66406,122.29239,122.29239,0,0,1-59.67187-32.87109,116.05634,116.05634,0,0,1-36.05469-84.16406V202.84811a5.98066,5.98066,0,0,1,1.90234-4.36328,5.78954,5.78954,0,0,1,4.19141-1.707,28.07319,28.07319,0,0,1,28.03906,28.01562v31.207a8.53321,8.53321,0,1,0,17.06641,0V93.86764a17.06836,17.06836,0,0,1,34.13672,0,7.45734,7.45734,0,0,0,.29687,1.46094,7.49537,7.49537,0,0,0-.29687,1.46484v82.40625a8.5332,8.5332,0,1,0,17.0664,0V96.79342a7.80111,7.80111,0,0,0-.30078-1.46484,7.46525,7.46525,0,0,0,.30078-1.46094V34.13326a17.06641,17.06641,0,0,1,34.13282,0V179.19967a8.5332,8.5332,0,1,0,17.0664,0V85.33248a17.06641,17.06641,0,0,1,34.13281,0v93.86719a8.53321,8.53321,0,1,0,17.06641,0V136.53561a17.06641,17.06641,0,1,1,34.13281,0ZM392.53552,494.93405H375.46911a8.533,8.533,0,0,1-8.53515-8.53125V398.9692a67.99122,67.99122,0,0,1,34.13281,0v87.4336A8.5322,8.5322,0,0,1,392.53552,494.93405Zm25.59766-53.15235V405.87936c1.16015.71094,2.4414,1.30859,3.51562,2.082a8.4448,8.4448,0,0,0,5.01953,1.64062,8.53536,8.53536,0,0,0,5.03516-15.42968,72.05667,72.05667,0,0,0-18.4336-9.38672,6.90576,6.90576,0,0,0-.85156-.33985,87.288,87.288,0,0,0-56.78125,0,6.72194,6.72194,0,0,0-.85547.33985,72.0323,72.0323,0,0,0-18.42968,9.38672,8.53255,8.53255,0,0,0,10.05078,13.78906c1.07422-.77344,2.35547-1.37109,3.51562-2.082v36.0625a100.76137,100.76137,0,0,1-63.65625-70.32422,444.8243,444.8243,0,0,1-8.99609-47.35156h29.93359a8.53321,8.53321,0,1,0,0-17.06641H275.3363c-1.41406-14.19141-2.26953-28.42187-2.26953-42.66406v-128H426.66833a8.53321,8.53321,0,0,0,0-17.06641H273.50427a110.82137,110.82137,0,0,1,221.01172,0H460.80114a8.53321,8.53321,0,1,0,0,17.06641H494.934v128c0,14.24219-.85157,28.47265-2.26953,42.66406h-151.332a8.53321,8.53321,0,0,0,0,17.06641H490.73474a443.423,443.423,0,0,1-8.94141,47.32812A100.24344,100.24344,0,0,1,418.13318,441.7817Z"/><path d="M341.33239,281.602a8.5332,8.5332,0,1,0,0-17.0664h-8.53125V170.66842a8.53446,8.53446,0,0,0-14.5664-6.03516l-17.06641,17.06641a8.53352,8.53352,0,0,0,12.06641,12.06641l2.5-2.5v73.26953h-8.53516a8.5332,8.5332,0,0,0,0,17.0664Z"/><path d="M375.46911,281.602a8.44769,8.44769,0,0,0,7.84766-11.77734,9.85526,9.85526,0,0,0-1.78906-2.81641,8.89363,8.89363,0,0,0-2.81641-1.793,8.54866,8.54866,0,0,0-6.48437,0,8.80745,8.80745,0,0,0-2.81641,1.793,9.86737,9.86737,0,0,0-1.793,2.81641,8.58108,8.58108,0,0,0-.68359,3.24219,8.4503,8.4503,0,0,0,8.53515,8.53515Z"/><path d="M409.60193,264.53561a8.5332,8.5332,0,1,0,0,17.0664H452.266a17.06606,17.06606,0,0,0,17.0664-17.0664V230.4028a17.0694,17.0694,0,0,0-17.0664-17.07032H418.13318V179.19967h42.668a8.53321,8.53321,0,0,0,0-17.06641h-42.668a17.06607,17.06607,0,0,0-17.06641,17.06641v34.13281a17.06941,17.06941,0,0,0,17.06641,17.07032H452.266v34.13281Z"/><path d="M418.13318,42.66842H349.86755a8.53321,8.53321,0,1,0,0,17.06641h68.26563a8.53321,8.53321,0,1,0,0-17.06641Z"/><path d="M401.06677,76.80123H366.934a8.53321,8.53321,0,0,0,0,17.06641h34.13281a8.53321,8.53321,0,1,0,0-17.06641Z"/><path d="M338.83239,343.83639a8.53226,8.53226,0,0,0-12.0664,0l-8.53125,8.53125a8.53227,8.53227,0,0,0,0,12.06641l8.53125,8.53515a8.53351,8.53351,0,0,0,12.0664-12.0664l-2.5-2.5,2.5-2.50391A8.52753,8.52753,0,0,0,338.83239,343.83639Z"/><path d="M441.23474,343.83639a8.53214,8.53214,0,0,0-12.06641,12.0625l2.5,2.50391-2.5,2.5a8.53348,8.53348,0,1,0,12.06641,12.0664l8.53125-8.53515a8.53227,8.53227,0,0,0,0-12.06641Z"/></g></g></svg>