            <svg  xmlns="http://www.w3.org/2000/svg"  width="30"  viewBox="0 0 380 512"><g id="Layer_2" data-name="Layer 2"><g id="Layer_1-2" data-name="Layer 1"><path d="M329,40H49A9.99924,9.99924,0,0,0,39,50V252a9.99924,9.99924,0,0,0,10,10H329a9.99924,9.99924,0,0,0,10-10V50A9.99924,9.99924,0,0,0,329,40ZM319,242H59V60H319Z"/><path d="M330,0H50A50.05635,50.05635,0,0,0,0,50V252c0,79.34766,61.93359,144.49219,140,149.66016V502a9.99924,9.99924,0,0,0,10,10h80a9.99924,9.99924,0,0,0,10-10V401.66016C318.06641,396.49609,380,331.34766,380,252V50A50.05635,50.05635,0,0,0,330,0ZM220,492H160V472h60Zm0-40H160V402h60ZM360,252A130.1455,130.1455,0,0,1,230,382H150A130.1455,130.1455,0,0,1,20,252V50A30.0328,30.0328,0,0,1,50,20H330a30.0328,30.0328,0,0,1,30,30Z"/><path d="M170,282H69a9.99679,9.99679,0,0,0-9.98828,10.5c.09375,1.88672,1.35156,18.9375,16.17969,36.05078C94.42969,350.74609,126.32813,362,170,362a9.99924,9.99924,0,0,0,10-10V292A9.99924,9.99924,0,0,0,170,282Zm-10,59.77344C105.56641,339.23047,87.668,315.99609,81.80859,302H160Z"/><path d="M311,282H210a9.99924,9.99924,0,0,0-10,10v60a9.99924,9.99924,0,0,0,10,10c43.67188,0,75.57031-11.25391,94.80859-33.44922,14.82813-17.11328,16.08594-34.16406,16.17969-36.05078A9.99679,9.99679,0,0,0,311,282Zm-91,59.77344V302h78.17969C292.30469,316.03516,274.39063,339.23438,220,341.77344Z"/><path d="M169,222a10,10,0,1,0-10-10A10.01428,10.01428,0,0,0,169,222Z"/><path d="M89,222h40a10,10,0,0,0,0-20H89a10,10,0,0,0,0,20Z"/><path d="M249,222a10,10,0,1,0-10-10A10.01428,10.01428,0,0,0,249,222Z"/><path d="M209,222a10,10,0,1,0-10-10A10.01428,10.01428,0,0,0,209,222Z"/></g></g></svg>
