            <svg   xmlns="http://www.w3.org/2000/svg"  width="60" viewBox="0 0 460.05671 511.86041"><title>weight</title><g id="Layer_2" data-name="Layer 2"><g id="Layer_1-2" data-name="Layer 1"><path d="M240.20277,0c-.01983,0-.03936.00116-.0592.00116.02411,0,.048-.00092.07208-.00092Z"/><path d="M240.23561,0l-.02.00024c1.54456.00019,3.08289.03553,4.61725.09089C243.30629.03711,241.77541,0,240.23561,0Z"/><path d="M444.28,105.364a52.94246,52.94246,0,0,0-40.50573-19.33465H350.328A127.55343,127.55343,0,0,0,235.44234.98279q-.39606-.01649-.79285-.03009C233.11513.89734,231.5768.862,230.03224.86182c-.02411,0-.048.00091-.07208.00091-1.4834.00067-2.96076.03565-4.43488.08728-.349.01221-.69787.02478-1.0462.03974-1.5033.06494-3.00293.14843-4.49518.26562-.04645.00366-.09253.00867-.139.01233q-2.32169.18493-4.62335.45569c-.13489.01562-.27.03021-.40472.04626A127.55944,127.55944,0,0,0,109.71461,86.02936H56.26832a52.94234,52.94234,0,0,0-40.494,19.3269,67.54935,67.54935,0,0,0-14.851,54.51062L47.59718,459.67737c4.65918,30.23608,27.93567,52.183,55.3606,52.183H357.09645c27.40936,0,50.68976-21.947,55.36456-52.17523l46.67383-299.81049A67.55182,67.55182,0,0,0,444.28,105.364Zm-323.7381,6.53461A110.74473,110.74473,0,1,1,263.07429,234.301a2.26256,2.26256,0,0,0-.23,0c-.20276,0-.347.16767-.54193.22223a110.33709,110.33709,0,0,1-64.56207,0c-.195-.05456-.34308-.17932-.54584-.22223a2.26293,2.26293,0,0,0-.23,0A110.72682,110.72682,0,0,1,120.54188,111.89862Zm321.74573,45.38721L395.61378,457.09631a41.43735,41.43735,0,0,1-38.51733,37.76484H102.94221a41.43357,41.43357,0,0,1-38.51342-37.76484L17.75105,157.28583a51.2617,51.2617,0,0,1,10.96369-40.884,36.16788,36.16788,0,0,1,27.55358-13.3382h48.54926a126.7256,126.7256,0,0,0-.7475,46.74152c.14972.87695.29871,1.754.46692,2.62805q.06766.3586.13727.71661a126.731,126.731,0,0,0,6.33478,21.63818c-.02448.01429-.0481.02985-.07257.04413a127.97576,127.97576,0,0,0,91.55139,78.52466l.00519-.037q4.8412,1.09013,9.7406,1.78534c.31665.04419.63244.09107.94983.13294.47595.06445.95269.11975,1.4292.17871a129.0052,129.0052,0,0,0,15.43951.9314c3.9129,0,7.7818-.18592,11.605-.53028a125.14223,125.14223,0,0,0,15.80652-2.49811l.00952.06818a127.97414,127.97414,0,0,0,91.68445-78.52924c-.03925-.02294-.07715-.04785-.11639-.07074a126.753,126.753,0,0,0,8.72473-43.85571q.01254-.7001.01776-1.402c.0072-.869.00116-1.73822-.00958-2.6076-.00678-.52441-.00684-1.05035-.0199-1.57324q-.0444-1.795-.14221-3.58972c-.02942-.55732-.0691-1.11194-.10566-1.66736q-.08459-1.2758-.19305-2.55072c-.04028-.46936-.07965-.939-.12494-1.4068-.13159-1.34436-.27661-2.68805-.45142-4.02967l-.00158-.01153q-.29151-2.23581-.664-4.46466l-.01654-.10016q-.37491-2.237-.83-4.46521h48.54926A36.18983,36.18983,0,0,1,431.32783,116.437,51.25662,51.25662,0,0,1,442.28761,157.28583Z"/><path d="M230.01936,60.4798a8.51784,8.51784,0,0,0,8.51911-8.51911V43.44543a8.51719,8.51719,0,1,0-17.03437,0v8.51526A8.517,8.517,0,0,0,230.01936,60.4798Z"/><path d="M184.3163,66.49188a8.5137,8.5137,0,0,0,7.38458,4.25763,8.377,8.377,0,0,0,4.25757-1.15014,8.51124,8.51124,0,0,0,3.11914-11.62269L194.82,50.6a8.51744,8.51744,0,0,0-14.75348,8.51519Z"/><path d="M152.00215,93.40607l7.37677,4.25763a8.51573,8.51573,0,0,0,8.5152-14.74958l-7.37671-4.25763a8.51575,8.51575,0,0,0-8.51526,14.74958Z"/><path d="M292.14455,174.32013l7.37677,4.26154a8.51841,8.51841,0,0,0,8.5191-14.75348l-7.37677-4.25763a8.5167,8.5167,0,0,0-8.5191,14.74957Z"/><path d="M161.882,128.61713a8.517,8.517,0,0,0-8.5191-8.5152h-8.5152a8.51715,8.51715,0,1,0,0,17.0343h8.5152A8.51779,8.51779,0,0,0,161.882,128.61713Z"/><path d="M298.15669,128.61713a8.5203,8.5203,0,0,0,8.51911,8.5191h8.5191a8.51715,8.51715,0,0,0,0-17.0343h-8.5191A8.51947,8.51947,0,0,0,298.15669,128.61713Z"/><path d="M160.51741,178.58167l7.37671-4.26154a8.51573,8.51573,0,0,0-8.5152-14.74957l-7.37677,4.25763a8.51742,8.51742,0,1,0,8.51526,14.75348Z"/><path d="M296.45674,98.80609a8.42938,8.42938,0,0,0,4.25763-1.14239l7.37671-4.25763A8.51672,8.51672,0,1,0,299.572,78.65649l-7.3767,4.25763a8.51745,8.51745,0,0,0,4.26147,15.892Z"/><path d="M264.088,69.59937a8.3627,8.3627,0,0,0,4.26147,1.15014,8.51359,8.51359,0,0,0,7.38452-4.25763l4.25763-7.37671A8.51743,8.51743,0,1,0,265.23817,50.6l-4.25763,7.3767A8.51634,8.51634,0,0,0,264.088,69.59937Z"/><path d="M265.32344,437.16418h-51.103a8.51716,8.51716,0,1,0,0,17.03431h51.103a8.51716,8.51716,0,0,0,0-17.03431Z"/><path d="M281.82344,380.92566h-84.103a8.51715,8.51715,0,1,0,0,17.0343h84.103a8.51715,8.51715,0,0,0,0-17.0343Z"/><path d="M297.32344,324.68713h-115.103a8.51716,8.51716,0,1,0,0,17.03431h115.103a8.51716,8.51716,0,0,0,0-17.03431Z"/><path d="M196.85487,201.42633a48.36368,48.36368,0,0,0,66.32532,0,8.27968,8.27968,0,0,0-5.70746-14.28241,8.06346,8.06346,0,0,0-5.56488,2.15051,31.77064,31.77064,0,0,1-13.36938,7.57489v-100.84a8.51719,8.51719,0,0,0-17.03437,0v100.842a31.7699,31.7699,0,0,1-13.37689-7.577,8.06335,8.06335,0,0,0-5.56488-2.15051A8.27968,8.27968,0,0,0,196.85487,201.42633Z"/></g></g></svg>