<?xml version="1.0" encoding="utf-8"?>
<!-- Generator: Adobe Illustrator 26.1.0, SVG Export Plug-In . SVG Version: 6.00 Build 0)  -->
<svg version="1.1" id="Layer_1" xmlns="http://www.w3.org/2000/svg" xmlns:xlink="http://www.w3.org/1999/xlink" x="0px" y="0px"
	 viewBox="0 0 595.05 400" style="enable-background:new 0 0 595.05 400;" xml:space="preserve">
<style type="text/css">
	.st0{opacity:0.21;}
	.st1{fill:#C4ADAD;}
	.st2{fill:#B29D9D;}
	.st3{fill:#EFE1E1;}
	.st4{fill:#FFFFFF;}
	.st5{fill:#F48462;}
	.st6{fill:#FFB164;}
	.st7{fill:#0F3C7C;}
	.st8{fill:#F7B369;}
	.st9{fill:#68B6D8;}
	.st10{fill:#EAD8D8;}
	.st11{fill:#A37B90;}
	.st12{fill:#D3BCBC;}
	.st13{fill:#50608E;}
	.st14{fill:#F4E6E6;}
	.st15{fill:#92B4EA;}
	.st16{fill:#7772D3;}
	.st17{fill:#40507F;}
	.st18{fill:#5C69A5;}
	.st19{fill:#4EB047;}
	.st20{fill:#40CE2C;}
	.st21{fill:#DCECFF;}
	.st22{fill:#ACCBF9;}
	.st23{fill:none;stroke:#FFFFFF;stroke-width:4;stroke-linejoin:round;}
	.st24{fill:none;stroke:#FFFFFF;stroke-width:4;stroke-linecap:round;stroke-linejoin:round;}
</style>
<g>
	<g class="st0">
		<ellipse class="st1" cx="298.18" cy="369.85" rx="269.87" ry="7.97"/>
	</g>
	<g>
		<g>
			<path class="st2" d="M335.62,370.05H190.64c-4.76,0-8.63-3.86-8.63-8.63v-99.33c0-4.76,3.86-8.63,8.63-8.63h144.99
				c4.76,0,8.63,3.86,8.63,8.63v99.33C344.25,366.19,340.39,370.05,335.62,370.05z"/>
		</g>
		<g>
			<path class="st1" d="M308.9,272.89H201.35c-1.5,0-2.72-1.22-2.72-2.72v-22.34c0-6.33,5.15-11.47,11.47-11.47h90.04
				c6.33,0,11.47,5.15,11.47,11.47v22.34C311.62,271.68,310.4,272.89,308.9,272.89z M204.07,267.46h102.12v-19.62
				c0-3.33-2.71-6.04-6.04-6.04h-90.04c-3.33,0-6.04,2.71-6.04,6.04V267.46z"/>
		</g>
		<g>
			<path class="st1" d="M327.62,370.05H182.63c-4.76,0-8.63-3.86-8.63-8.63v-99.33c0-4.76,3.86-8.63,8.63-8.63h144.99
				c4.76,0,8.63,3.86,8.63,8.63v99.33C336.25,366.19,332.38,370.05,327.62,370.05z"/>
		</g>
		<g>
			<path class="st3" d="M336.25,290.29H174.01c-0.3,0-0.54-0.24-0.54-0.54s0.24-0.54,0.54-0.54h162.24c0.3,0,0.54,0.24,0.54,0.54
				S336.55,290.29,336.25,290.29z"/>
		</g>
		<g>
			<circle class="st3" cx="255.13" cy="324.79" r="31.26"/>
		</g>
		<g>
			<g>
				<path class="st4" d="M256.61,342.11h-2.97c-1.13,0-2.05-0.92-2.05-2.05v-30.54c0-1.13,0.92-2.05,2.05-2.05h2.97
					c1.13,0,2.05,0.92,2.05,2.05v30.54C258.66,341.19,257.74,342.11,256.61,342.11z"/>
			</g>
			<g>
				<path class="st4" d="M272.45,323.31v2.97c0,1.13-0.92,2.05-2.05,2.05h-30.54c-1.13,0-2.05-0.92-2.05-2.05v-2.97
					c0-1.13,0.92-2.05,2.05-2.05h30.54C271.53,321.26,272.45,322.18,272.45,323.31z"/>
			</g>
		</g>
	</g>
	<g>
		<g>
			<path class="st5" d="M189.21,139.8c0,0-9.39,21.16-14.72,19.81c-5.33-1.35-7.13-8.15-7.13-8.15s-6.87-11.77-0.18-15.05
				C174.6,132.77,189.21,139.8,189.21,139.8z"/>
		</g>
		<g>
			<polygon class="st5" points="133.11,333.06 143.67,351.16 168.02,343.43 155.54,322.83 			"/>
		</g>
		<g>
			<polygon class="st5" points="86.95,352.38 87.62,332.52 111.25,331.34 111.25,353.56 			"/>
		</g>
		<g>
			<path class="st5" d="M37.46,140.72c0,0,10.63,26.59,25.96,35.09c12.54,6.96,26.57,4.1,26.57,4.1l-2.4-25.14l-13.83-3.44
				c-2.58-1.11-10.03-6.2-12.14-8.05l-10.32-11.57L37.46,140.72z"/>
		</g>
		<g>
			<g>
				<path class="st6" d="M123.12,208.77l-1.09,56.1c0,0-0.59,27.83-1.61,50.76c-0.34,7.99-1.76,21.41-2.2,26.84H82.95
					c-0.14-24.05-1.73-94.74-0.69-106.25c1.25-14.16,3.76-27.7,3.76-27.7l32.55,0.21L123.12,208.77z"/>
			</g>
		</g>
		<g>
			<g>
				<path class="st6" d="M134.17,343.28c-4.17-7-13.9-28.43-17.75-37.33c-1.72-3.98,2.15-97.22,2.15-97.22v-0.21l11.24-2.94
					c0,0,31.99,97.71,39.67,125.75L134.17,343.28z"/>
			</g>
		</g>
		<g>
			<path class="st4" d="M89.06,224.22c-0.6,0-1.21-0.07-1.85-0.22c-0.17-0.04-0.28-0.21-0.24-0.39c0.04-0.17,0.22-0.28,0.39-0.24
				c7.01,1.66,11.45-7.4,11.5-7.49c0.08-0.16,0.27-0.22,0.43-0.15c0.16,0.08,0.23,0.27,0.15,0.43
				C99.39,216.25,95.47,224.22,89.06,224.22z"/>
		</g>
		<g>
			<path class="st4" d="M120.27,315.18c-0.17,0-0.32-0.14-0.32-0.31l-1.7-84.5c0-0.11,0.05-0.21,0.14-0.27l9.78-6.46
				c0.15-0.1,0.35-0.06,0.44,0.09c0.1,0.15,0.06,0.35-0.09,0.44l-9.63,6.36l1.69,84.32C120.6,315.03,120.45,315.17,120.27,315.18
				C120.27,315.18,120.27,315.18,120.27,315.18z"/>
		</g>
		<g>
			<path class="st7" d="M111.61,152.24c0,0,9.44,0.4,13.18,7.39c3.74,6.99,6.57,48.65,6.57,48.65s-10.46,4.28-25.74,4.09
				c-15.27-0.18-20.44-3.84-20.44-3.84l-2.94-25.69c0,0,0.47-27.87,4.27-29.77C90.33,151.16,105.29,150.74,111.61,152.24z"/>
		</g>
		<g>
			<g>
				<path class="st5" d="M51.81,130.63c0,0-1.49-6.63-5.04-9.65c-3.54-3.02-7.73-4.97-7-2.28s3.19,7.08,3.19,7.08l-6.43-1.71
					c0,0-4.19-1.95-7.24-2.76c-3.04-0.81-4,1.43-4,1.43s-3.04-0.81-4.37,0.08c-1.32,0.89-0.39,2.81-0.39,2.81s-4.37,0.08-2.72,3.43
					c1.64,3.35,10.29,8.97,14.48,10.92c4.19,1.95,13.63,3.21,13.63,3.21S54.41,145.05,51.81,130.63z"/>
			</g>
		</g>
		<g>
			<path d="M28.31,132.05c-0.11,0-0.23-0.06-0.28-0.17c-0.08-0.16-0.02-0.35,0.13-0.44l11.15-5.98c0.16-0.08,0.35-0.02,0.43,0.13
				c0.08,0.16,0.02,0.35-0.13,0.44l-11.15,5.98C28.41,132.03,28.36,132.05,28.31,132.05z"/>
		</g>
		<g>
			<path d="M47.05,134.8c-0.04,0-0.08-0.01-0.12-0.02c-5.76-2.31-4.03-8.07-4.02-8.13c0.05-0.17,0.24-0.26,0.4-0.21
				c0.17,0.05,0.26,0.23,0.21,0.4c-0.07,0.21-1.57,5.25,3.64,7.34c0.16,0.07,0.24,0.25,0.18,0.42
				C47.29,134.73,47.17,134.8,47.05,134.8z"/>
		</g>
		<g>
			<path class="st7" d="M37.46,143.9c0,0,7.54,21.49,21.38,30.45c10.91,7.06,26.06,7.51,26.06,7.51l12.08-30.43
				c0,0-21.63-0.65-27.6-5.07c-5.97-4.43-15.52-14.1-15.52-14.1L37.46,143.9z"/>
		</g>
		<g>
			<path class="st8" d="M68.59,156.42c-0.51,0-0.77-0.26-0.9-0.48c-0.95-1.66,2.42-7.61,3.1-8.78c0.07-0.12,0.22-0.18,0.36-0.15
				c0.14,0.04,0.24,0.16,0.24,0.3c0.01,0.27,0.18,6.72-1.61,8.58C69.43,156.24,69.04,156.42,68.59,156.42z M70.75,148.54
				c-1.42,2.62-3.02,6.17-2.5,7.08c0.04,0.08,0.12,0.16,0.34,0.16c0.27,0,0.5-0.11,0.73-0.34C70.49,154.23,70.72,150.5,70.75,148.54
				z"/>
		</g>
		<g>
			<path class="st7" d="M115.75,152.98c0,0,14.02,5.26,26.34,4.67c12.32-0.59,22.74-11.31,22.74-11.31l12.89,14.37
				c0,0-8.29,22.94-27.91,27.61c-19.62,4.67-35.21-7.83-35.21-7.83L115.75,152.98z"/>
		</g>
		<g>
			<path class="st8" d="M147.76,164.11c-0.44,0-0.85-0.14-1.21-0.42c-1.78-1.38-1.74-5.85-1.74-6.04c0-0.12,0.07-0.23,0.18-0.29
				c0.11-0.05,0.24-0.04,0.34,0.04c0.47,0.38,4.59,3.72,4.21,5.58c-0.07,0.35-0.33,0.81-1.14,1.03
				C148.18,164.08,147.97,164.11,147.76,164.11z M145.47,158.35c0.06,1.27,0.32,3.94,1.47,4.83c0.36,0.28,0.78,0.35,1.29,0.21
				c0.6-0.16,0.66-0.45,0.68-0.54C149.12,161.86,147.09,159.73,145.47,158.35z"/>
		</g>
		<g>
			<path class="st8" d="M129.6,188.09c-0.16,0-0.3-0.12-0.32-0.28l-2.02-14.51c-0.02-0.18,0.1-0.34,0.27-0.36
				c0.18-0.03,0.34,0.1,0.36,0.27l2.02,14.51c0.02,0.18-0.1,0.34-0.27,0.36C129.63,188.09,129.62,188.09,129.6,188.09z"/>
		</g>
		<g>
			<g>
				<g>
					<g>
						<path class="st9" d="M116.42,369.29c0,1.98-0.76,4.24-2.33,4.81c-1.57,0.57-14.24,1.76-25.32,0.92
							c-10.61-0.81-12.82-1.49-13.6-2.33c-0.38-0.43,0.36-2.4,1.22-4.32c0.05-0.09,0.09-0.21,0.15-0.3c0.44-0.97,0.89-1.9,1.22-2.56
							c0.33-0.63,0.73-1.23,1.2-1.82c1.15-1.38,3.42-4.22,4.01-5.7c0.76-1.96,1.93-6.2,2.71-8.2c0.78-1.96,2.69-2.37,2.69-2.37
							s7.38-5.63,23.39-0.16c1.9,0.65,2.33,10.46,2.33,11.87v1.41c0,1.31,1.04,3.91,1.71,6.06c0.18,0.54,0.33,1.04,0.44,1.5
							C116.34,368.56,116.42,368.96,116.42,369.29z"/>
					</g>
				</g>
			</g>
		</g>
		<g>
			<g>
				<path class="st9" d="M203.47,371.75c0.56-0.08,0.93-0.65,0.83-1.26c-0.49-2.85-2.2-10.82-6.59-14.18
					c-5.4-4.13-16.65-5.71-20.76-8.46c-4.11-2.75-8.73-9.42-11.16-8.13c-2.43,1.29-6.99,7.15-13.64,6.36
					c-6.65-0.79-11.51-0.75-13.28,0.93c-1.78,1.68-0.86,23.32-0.08,24.71c0.78,1.38,10.13,0.04,10.94,0.25
					c0.82,0.22,3.08-5.35,4.62-4.53c1.54,0.82,3.43,3.41,5.7,4.59C162.15,373.14,196.78,372.73,203.47,371.75z"/>
			</g>
		</g>
		<g>
			<path class="st7" d="M174.64,351.14c-0.05,0-0.09-0.01-0.14-0.03c-0.16-0.07-0.23-0.25-0.16-0.41c0.07-0.18,0.79-1.93,1.91-3.89
				c1.75-3.81,3.64-8.65,2.95-10.19c-0.1-0.21-0.23-0.34-0.44-0.38c-0.39-0.1-0.74-0.02-1.08,0.23c-2.23,1.65-2.71,9.53-2.71,9.61
				c-0.01,0.18-0.16,0.32-0.34,0.3c-0.18-0.01-0.31-0.16-0.3-0.34c0.02-0.34,0.5-8.26,2.97-10.09c0.5-0.37,1.04-0.48,1.62-0.34
				c0.39,0.1,0.7,0.35,0.87,0.75c0.61,1.35-0.31,4.43-1.51,7.43c1.46-1.8,3.18-3.12,4.94-2.62c0.9,0.26,1.19,0.79,1.28,1.2
				c0.58,2.62-5.62,8.08-6.33,8.7c-0.13,0.12-0.34,0.1-0.45-0.03c-0.12-0.13-0.1-0.34,0.03-0.45c1.84-1.6,6.54-6.17,6.12-8.07
				c-0.08-0.35-0.35-0.58-0.83-0.72c-2.25-0.65-4.59,2.49-6.17,5.26c-0.91,1.96-1.71,3.51-1.93,3.92
				C174.87,351.07,174.75,351.14,174.64,351.14z"/>
		</g>
		<g>
			<path class="st7" d="M95.74,360.41c-0.04,0-0.08-0.01-0.12-0.02c-0.56-0.22-5.51-2.21-6.09-4.18c-0.12-0.41-0.05-0.81,0.2-1.16
				c0.26-0.36,0.63-0.57,1.11-0.64c1.31-0.18,3.24,0.87,4.63,1.77c-1.54-2.14-3.8-5.69-3.19-7.23c0.12-0.3,0.4-0.68,1.06-0.78
				c3.52-0.52,5.86,9.64,6.12,10.8c0.04,0.17-0.07,0.34-0.24,0.38c-0.17,0.04-0.34-0.07-0.38-0.24c-0.67-2.99-2.92-10.66-5.39-10.31
				c-0.39,0.06-0.51,0.25-0.56,0.38c-0.6,1.54,2.94,6.5,4.36,8.28c0.1,0.13,0.09,0.31-0.02,0.43c-0.12,0.12-0.3,0.13-0.43,0.02
				c-1.08-0.87-4.25-3.1-5.86-2.87c-0.3,0.04-0.52,0.16-0.68,0.38c-0.13,0.19-0.17,0.38-0.1,0.6c0.41,1.41,4.26,3.2,5.71,3.76
				c0.17,0.06,0.25,0.25,0.18,0.42C95.99,360.34,95.87,360.41,95.74,360.41z"/>
		</g>
		<g>
			<path d="M111.03,131.57c0,0,5.79-8.29,2.91-11.22c-2.88-2.93-6.78,0.47-6.78,0.47s-0.48-3.67-4.56-3
				c-4.08,0.67-6.24,5.21-6.24,5.21s-3.86-3.36-6.08,0.43c-2.22,3.79-0.1,9.56-0.1,9.56s-2.88-0.22-1.89,3.07
				c0.99,3.3,5.72,6.43,5.72,6.43L111.03,131.57z"/>
		</g>
		<g>
			<g>
				<path class="st5" d="M98.01,144.9l0.5,8.86c0,0,2.19,1.76,7.39,1.89c3.88,0.1,4.44-1.81,4.44-1.81l-0.5-2.8l-0.78-4.34
					l-9.47-1.53L98.01,144.9z"/>
			</g>
		</g>
		<g>
			<g>
				<path d="M99.6,145.15c0.04,0.24,0.14,0.52,0.31,0.84c2.23,4.31,7.7,4.96,9.94,5.03l-0.78-4.34L99.6,145.15z"/>
			</g>
		</g>
		<g>
			<g>
				<path class="st5" d="M109.9,126.39c0,0,5.27,10.84,3.79,17.11c-1.48,6.27-7.17,5.53-10.6,4.47c-3.43-1.06-5.08-3.07-5.08-3.07
					s-3.11,1.2-5.35-1.65s-1.07-6.28,0.7-7.12c1.77-0.85,3.97,0.37,3.97,0.37l-1.81-3.14C95.52,133.35,101.92,116.76,109.9,126.39z"
					/>
			</g>
		</g>
		<g>
			<path d="M97.25,141.26c-0.06,0-0.12-0.02-0.17-0.05l-4.15-2.64c-0.15-0.1-0.19-0.29-0.1-0.44c0.1-0.15,0.29-0.19,0.44-0.1
				l4.15,2.64c0.15,0.1,0.19,0.29,0.1,0.44C97.46,141.21,97.36,141.26,97.25,141.26z"/>
		</g>
		<g>
			<path d="M93.61,141.42c-0.14,0-0.26-0.09-0.31-0.22c-0.05-0.17,0.04-0.35,0.21-0.4l2.59-0.82c0.17-0.06,0.35,0.04,0.4,0.21
				c0.05,0.17-0.04,0.35-0.21,0.4l-2.59,0.82C93.68,141.41,93.65,141.42,93.61,141.42z"/>
		</g>
		<g>
			<path d="M102.99,131.9c-0.03,0-0.06,0-0.09-0.01c-0.17-0.05-0.27-0.22-0.22-0.4c0.52-1.87,2.1-2.2,2.86-2.12
				c0.18,0.02,0.3,0.18,0.28,0.35c-0.02,0.18-0.18,0.3-0.35,0.29c-0.07-0.01-1.66-0.15-2.17,1.66
				C103.26,131.81,103.13,131.9,102.99,131.9z"/>
		</g>
		<g>
			<path d="M111.3,130.54c-0.07,0-0.13-0.02-0.19-0.06c-0.69-0.51-0.98-0.59-1.06-0.6c-0.11,0.05-0.23,0.04-0.33-0.04
				c-0.14-0.11-0.17-0.31-0.06-0.45c0.38-0.5,1.47,0.3,1.83,0.57c0.14,0.1,0.17,0.31,0.07,0.45
				C111.49,130.5,111.39,130.54,111.3,130.54z"/>
		</g>
		<g>
			<path d="M110.28,139.05c-0.06,0-0.12-0.02-0.18-0.05c-0.15-0.1-0.19-0.3-0.09-0.44c0.8-1.22-0.94-3.26-1.68-3.95
				c-0.13-0.12-0.14-0.32-0.02-0.45c0.12-0.13,0.32-0.14,0.45-0.02c0.12,0.12,3.04,2.85,1.78,4.77
				C110.49,139,110.38,139.05,110.28,139.05z"/>
		</g>
		<g>
			<path d="M111.5,134.8c-0.13,0-0.26-0.09-0.3-0.22l-0.67-2c-0.06-0.17,0.03-0.35,0.2-0.41c0.17-0.06,0.35,0.03,0.41,0.2l0.67,2
				c0.06,0.17-0.03,0.35-0.2,0.41C111.56,134.8,111.53,134.8,111.5,134.8z"/>
		</g>
		<g>
			<path d="M105.9,135.23c-0.13,0-0.26-0.08-0.3-0.22l-0.67-2c-0.06-0.17,0.03-0.35,0.2-0.41c0.17-0.06,0.35,0.03,0.41,0.2l0.67,2
				c0.06,0.17-0.03,0.35-0.2,0.41C105.97,135.22,105.93,135.23,105.9,135.23z"/>
		</g>
		<g>
			<path d="M110.98,128.84c0,0-1.06-1.73-3.27-1.62c-2.21,0.11-3.41,1.74-3.41,1.74s1.18,3.67-1.71,5.81
				c-2.89,2.15-5.25,1.72-5.25,1.72l-2.22-0.65l-1.78-3.09l5.92-7.15l7.92-4.77l4.37,3.54L110.98,128.84z"/>
		</g>
		<g>
			<path d="M107.95,142.72c-0.69,0-2.16-0.19-2.96-1.67c-0.08-0.16-0.03-0.35,0.13-0.44c0.16-0.08,0.35-0.03,0.43,0.13
				c0.84,1.56,2.6,1.33,2.68,1.31c0.17-0.03,0.34,0.09,0.36,0.27c0.03,0.17-0.09,0.34-0.27,0.36
				C108.33,142.7,108.18,142.72,107.95,142.72z"/>
		</g>
		<g>
			<path class="st8" d="M98.24,160.28c-0.45,0-0.85-0.11-1.18-0.35c-0.47-0.35-0.75-0.83-0.82-1.44c-0.26-2.04,1.93-4.82,2.02-4.94
				c0.1-0.12,0.27-0.16,0.4-0.08c0.07,0.04,7.25,3.75,11.48,0.12c0.1-0.08,0.24-0.1,0.35-0.05c0.67,0.33,4,2.02,3.9,3.4
				c-0.03,0.46-0.39,0.81-1.07,1.03c-2.77,0.89-6.47-1.32-7.39-1.92C104.88,156.93,100.78,160.28,98.24,160.28z M98.6,154.16
				c-0.49,0.66-1.92,2.77-1.73,4.25c0.06,0.43,0.24,0.76,0.57,1c1.47,1.09,5.67-1.89,7.72-3.57
				C102.2,155.79,99.44,154.56,98.6,154.16z M106.69,155.75c1.27,0.75,4.26,2.29,6.43,1.59c0.23-0.07,0.61-0.23,0.63-0.46
				c0.05-0.66-1.91-1.95-3.36-2.68C109.26,155.12,107.98,155.58,106.69,155.75z"/>
		</g>
		<g>
			<path d="M171.27,152.03c-0.12,0-0.23-0.06-0.28-0.17c-0.08-0.16-0.02-0.35,0.13-0.43c2.57-1.35,3.48-6.53,3.49-6.58
				c0.03-0.17,0.2-0.29,0.37-0.26c0.17,0.03,0.29,0.2,0.26,0.37c-0.04,0.23-0.98,5.55-3.82,7.04
				C171.37,152.02,171.32,152.03,171.27,152.03z"/>
		</g>
	</g>
	<g>
		<path class="st2" d="M427.35,223.9H193.78c-4.8,0-8.7-3.89-8.7-8.7V64.77c0-4.8,3.89-8.7,8.7-8.7h233.58c4.8,0,8.7,3.89,8.7,8.7
			V215.2C436.05,220,432.16,223.9,427.35,223.9z"/>
	</g>
	<g>
		<path class="st10" d="M427.29,64.79v150.39c0,4.82-3.9,8.72-8.71,8.72H183.96c-4.81,0-8.72-3.9-8.72-8.72V64.79
			c0-4.82,3.91-8.72,8.72-8.72h234.62C423.39,56.07,427.29,59.97,427.29,64.79z"/>
	</g>
	<g>
		<path class="st5" d="M166.17,141.19c0,0-0.56-3.66,1-4.94c1.56-1.28,12.57-6.58,14.66-3.64c1.05,1.47-6.92,6.87-6.92,6.87
			s0.12,3.01-1.18,6.94c-1.31,3.93-4.25,1.82-4.25,1.82L166.17,141.19z"/>
	</g>
	<g>
		<g>
			<path class="st4" d="M365.46,99.91c0,2.12,0.28,4.18,0.8,6.14c1.22,4.6,3.77,8.65,7.23,11.71c0.23,0.2,0.46,0.4,0.7,0.6
				c0.86,0.72,1.78,1.37,2.74,1.95c0.42,0.26,0.85,0.5,1.28,0.73c0.12,0.07,0.25,0.13,0.37,0.19c3.23,1.64,6.9,2.56,10.77,2.56
				c1.32,0,2.62-0.11,3.88-0.32c0.91-0.14,1.79-0.34,2.66-0.59c2.88-0.82,5.54-2.17,7.87-3.93c0.56-0.43,1.1-0.88,1.62-1.35
				c0.88-0.79,1.7-1.65,2.44-2.56c0.26-0.31,0.51-0.64,0.74-0.96c2.93-3.97,4.66-8.87,4.66-14.18c0-13.19-10.69-23.89-23.89-23.89
				C376.15,76.02,365.46,86.71,365.46,99.91z"/>
		</g>
		<g>
			<path d="M384.26,92.8c0,0-4.06-4.7-2.48-6.67c1.58-1.97,4.17-0.13,4.17-0.13s0.07-2.27,2.6-2.12c2.53,0.15,4.14,2.8,4.14,2.8
				s2.15-2.29,3.74-0.12c1.59,2.18,0.66,5.84,0.66,5.84s1.75-0.32,1.34,1.76c-0.4,2.08-3.1,4.29-3.1,4.29L384.26,92.8z"/>
		</g>
		<g>
			<g>
				<path class="st5" d="M393.05,100.13l0.25,5.44c0,0-1.23,1.21-4.4,1.61c-2.36,0.3-2.83-0.83-2.83-0.83l0.13-1.74l0.2-2.7
					l5.69-1.53L393.05,100.13z"/>
			</g>
		</g>
		<g>
			<g>
				<path d="M392.09,100.39c-0.01,0.15-0.06,0.33-0.13,0.53c-1.09,2.77-4.4,3.51-5.76,3.7l0.2-2.7L392.09,100.39z"/>
			</g>
		</g>
		<g>
			<g>
				<path class="st5" d="M384.62,89.57c0,0-2.55,6.95-1.25,10.69s4.73,2.93,6.76,2.07c2.03-0.86,2.91-2.19,2.91-2.19
					s1.98,0.54,3.16-1.34c1.19-1.88,0.26-3.9-0.87-4.31s-2.4,0.47-2.4,0.47l0.91-2.03C393.85,92.93,388.9,83.19,384.62,89.57z"/>
			</g>
		</g>
		<g>
			<path d="M393.26,97.87c-0.06,0-0.12-0.03-0.15-0.07c-0.07-0.09-0.05-0.21,0.03-0.28l2.37-1.88c0.08-0.07,0.21-0.05,0.28,0.03
				c0.07,0.09,0.05,0.21-0.03,0.28l-2.37,1.88C393.35,97.85,393.31,97.87,393.26,97.87z"/>
		</g>
		<g>
			<path d="M395.5,97.74c-0.04,0-1.67-0.35-1.67-0.35c-0.11-0.02-0.18-0.13-0.15-0.23c0.02-0.11,0.13-0.17,0.23-0.15l1.63,0.34
				c0.11,0.02,0.18,0.13,0.15,0.23C395.67,97.67,395.59,97.74,395.5,97.74z"/>
		</g>
		<g>
			<path d="M389.17,92.5c-0.08,0-0.15-0.05-0.18-0.12c-0.42-1.07-1.39-0.89-1.43-0.88c-0.12,0.02-0.21-0.05-0.23-0.15
				c-0.02-0.11,0.04-0.21,0.15-0.23c0.46-0.1,1.44,0.01,1.88,1.12c0.04,0.1-0.01,0.22-0.11,0.26C389.22,92.5,389.2,92.5,389.17,92.5
				z"/>
		</g>
		<g>
			<path d="M384.01,92.19c-0.05,0-0.11-0.02-0.15-0.06c-0.07-0.08-0.07-0.21,0.01-0.28c0.2-0.18,0.82-0.74,1.08-0.46
				c0.07,0.08,0.07,0.2-0.01,0.28c-0.05,0.05-0.13,0.07-0.2,0.04c-0.05,0.01-0.22,0.08-0.61,0.43
				C384.11,92.18,384.06,92.19,384.01,92.19z"/>
		</g>
		<g>
			<path d="M385.16,97.33c-0.06,0-0.11-0.02-0.15-0.07c-0.89-1.1,0.72-2.95,0.79-3.03c0.07-0.08,0.2-0.09,0.28-0.02
				c0.08,0.07,0.09,0.2,0.02,0.28c-0.41,0.46-1.35,1.82-0.78,2.52c0.07,0.08,0.06,0.21-0.03,0.28
				C385.25,97.32,385.21,97.33,385.16,97.33z"/>
		</g>
		<g>
			<path d="M384.16,94.81c-0.15-0.03-0.22-0.13-0.19-0.24l0.28-1.26c0.02-0.11,0.12-0.17,0.24-0.15c0.11,0.02,0.17,0.13,0.15,0.24
				l-0.28,1.26C384.33,94.75,384.25,94.81,384.16,94.81z"/>
		</g>
		<g>
			<path d="M387.6,94.72c-0.15-0.03-0.22-0.13-0.19-0.24l0.28-1.26c0.02-0.11,0.13-0.17,0.24-0.15c0.11,0.02,0.17,0.13,0.15,0.24
				l-0.28,1.26C387.78,94.66,387.69,94.72,387.6,94.72z"/>
		</g>
		<g>
			<path d="M384.12,91.13c0,0,0.54-1.12,1.9-1.19c1.36-0.07,2.19,0.85,2.19,0.85s-0.49,2.31,1.41,3.44c1.9,1.13,3.31,0.73,3.31,0.73
				l1.32-0.54l0.89-2l-4.06-4L385.95,86l-2.45,2.44L384.12,91.13z"/>
		</g>
		<g>
			<path d="M386.63,99.44c-0.14-0.01-0.22-0.1-0.22-0.21c0-0.11,0.09-0.19,0.2-0.19c0.24,0,1.18-0.05,1.56-0.97
				c0.04-0.1,0.16-0.15,0.26-0.11c0.1,0.04,0.15,0.16,0.11,0.26C388.06,99.38,386.85,99.44,386.63,99.44z"/>
		</g>
		<g>
			<path class="st7" d="M374.18,118.36c0.86,0.72,1.78,1.37,2.74,1.95c0.42,0.26,0.85,0.5,1.28,0.73c0.12,0.07,0.25,0.13,0.37,0.19
				c3.23,1.64,6.9,2.56,10.77,2.56c1.32,0,2.62-0.11,3.88-0.32c0.91-0.14,1.79-0.34,2.66-0.59c2.88-0.82,5.54-2.17,7.87-3.93
				c0.56-0.43,1.1-0.88,1.62-1.35c0.88-0.79,1.7-1.65,2.44-2.56c0.26-0.31,0.51-0.64,0.74-0.96c-1.59-2.43-4.27-5.54-8.28-7.15
				c-1.11-0.44-2.31-0.77-3.61-0.94c-0.08-0.01-0.15-0.02-0.23-0.03c-0.12-0.02-0.24-0.03-0.35-0.04c-0.13-0.02-0.23-0.02-0.32-0.03
				c-0.15-0.01-0.3-0.02-0.44-0.03c-0.32-0.03-0.65-0.05-0.96-0.06c-8.9-0.34-13.63,3.19-13.91,3.4c-0.03,0.02-0.04,0.04-0.06,0.06
				c-0.09,0.1-0.3,0.33-0.61,0.69C378.65,111.32,376.18,114.4,374.18,118.36z"/>
		</g>
		<g>
			<path class="st7" d="M378.58,121.24c3.23,1.64,6.9,2.56,10.77,2.56c1.32,0,2.62-0.11,3.88-0.32c0.91-0.14,1.79-0.34,2.66-0.59
				c2.88-0.82,5.54-2.17,7.87-3.93c-1-6.08-2.05-11.12-2.87-11.68c-0.18-0.12-0.38-0.24-0.59-0.34c-1.1-0.54-2.46-0.8-3.61-0.94
				c-0.08-0.01-0.15-0.02-0.23-0.03c-0.12-0.02-0.24-0.03-0.35-0.04c-0.11-0.01-0.22-0.02-0.32-0.03c-0.15-0.01-0.3-0.02-0.44-0.03
				c-0.58-0.03-0.96-0.03-0.96-0.03c-0.03-0.37-0.26-3.02-0.98-2.96c-0.76,0.07-2.61,1.34-4.57,1.5c-1.96,0.16-3.01-0.02-3.4-0.02
				c-0.39,0-0.48,2.1-0.48,2.1s-2.62,0.89-4.49,2.75c-0.03,0.02-0.04,0.04-0.06,0.06c-0.09,0.1-0.3,0.33-0.61,0.69
				c-0.24,0.3-0.44,0.61-0.61,0.95C378.65,111.99,378.52,116.22,378.58,121.24z"/>
		</g>
		<g>
			<path class="st8" d="M390.25,106.93c-0.32,0-0.63-0.03-0.91-0.09c-0.11-0.02-0.17-0.13-0.15-0.24c0.03-0.11,0.12-0.17,0.24-0.15
				c1.68,0.39,4.86-0.77,4.9-0.78c0.1-0.04,0.21,0.01,0.25,0.12c0.04,0.1-0.01,0.22-0.12,0.25
				C394.35,106.09,392.05,106.93,390.25,106.93z"/>
		</g>
	</g>
	<g>
		<path class="st11" d="M342.37,86.12H202.03c-1.07,0-1.94-0.87-1.94-1.94c0-1.07,0.87-1.94,1.94-1.94h140.34
			c1.07,0,1.94,0.87,1.94,1.94C344.31,85.25,343.44,86.12,342.37,86.12z"/>
	</g>
	<g>
		<path class="st11" d="M342.37,118.06H202.03c-1.07,0-1.94-0.87-1.94-1.94c0-1.07,0.87-1.94,1.94-1.94h140.34
			c1.07,0,1.94,0.87,1.94,1.94C344.31,117.19,343.44,118.06,342.37,118.06z"/>
	</g>
	<g>
		<path class="st11" d="M326.28,102.09H201.72c-1.07,0-1.94-0.87-1.94-1.94s0.87-1.94,1.94-1.94h124.56c1.07,0,1.94,0.87,1.94,1.94
			S327.35,102.09,326.28,102.09z"/>
	</g>
	<g>
		<path class="st12" d="M389.69,206.44H249.35c-1.07,0-1.94-0.87-1.94-1.94c0-1.07,0.87-1.94,1.94-1.94h140.34
			c1.07,0,1.94,0.87,1.94,1.94C391.64,205.57,390.77,206.44,389.69,206.44z"/>
	</g>
	<g>
		<path class="st12" d="M373.6,190.46H249.04c-1.07,0-1.94-0.87-1.94-1.94s0.87-1.94,1.94-1.94H373.6c1.07,0,1.94,0.87,1.94,1.94
			S374.67,190.46,373.6,190.46z"/>
	</g>
	<g>
		<path class="st12" d="M307.33,138.27H201.25c-0.64,0-1.16-0.52-1.16-1.16v-0.09c0-0.64,0.52-1.16,1.16-1.16h106.08
			c0.64,0,1.16,0.52,1.16,1.16v0.09C308.49,137.75,307.97,138.27,307.33,138.27z"/>
	</g>
	<g>
		<path class="st12" d="M325.99,146.1h-124.7c-0.66,0-1.2-0.54-1.2-1.2s0.54-1.2,1.2-1.2h124.7c0.66,0,1.2,0.54,1.2,1.2
			S326.66,146.1,325.99,146.1z"/>
	</g>
	<g>
		<path class="st12" d="M352.32,153.93H201.29c-0.66,0-1.2-0.54-1.2-1.2s0.54-1.2,1.2-1.2h151.03c0.66,0,1.2,0.54,1.2,1.2
			S352.98,153.93,352.32,153.93z"/>
	</g>
	<g>
		<path class="st12" d="M308.05,161.76H201.97c-0.64,0-1.16-0.52-1.16-1.16v-0.09c0-0.64,0.52-1.16,1.16-1.16h106.08
			c0.64,0,1.16,0.52,1.16,1.16v0.09C309.21,161.24,308.69,161.76,308.05,161.76z"/>
	</g>
	<g>
		<path class="st12" d="M326.71,169.59h-124.7c-0.66,0-1.2-0.54-1.2-1.2c0-0.66,0.54-1.2,1.2-1.2h124.7c0.66,0,1.2,0.54,1.2,1.2
			C327.92,169.05,327.38,169.59,326.71,169.59z"/>
	</g>
	<g>
		<g>
			<path class="st11" d="M409.1,133.28c-5.03-2.25-12.13,1.54-17.8,8.82c-5.67-7.28-12.77-11.07-17.8-8.82
				c-6.54,2.92-7.1,14.92-1.27,26.8c4.11,8.35,10.29,14.42,15.87,16.26c1,0.42,2.07,0.61,3.2,0.59c1.13,0.02,2.2-0.17,3.2-0.59
				c5.58-1.85,11.76-7.91,15.87-16.26C416.2,148.2,415.63,136.21,409.1,133.28z"/>
		</g>
		<g>
			<path class="st4" d="M387.63,169.9c-0.15,0-0.29-0.11-0.32-0.26l-4.75-23.96l-3.79,14.01c-0.04,0.14-0.16,0.24-0.31,0.24H368.2
				c-0.18,0-0.32-0.14-0.32-0.32c0-0.18,0.14-0.32,0.32-0.32h10.03l4.08-15.1c0.04-0.14,0.18-0.26,0.32-0.24
				c0.15,0,0.28,0.11,0.3,0.26l4.67,23.54l2.77-17.42c0.02-0.14,0.14-0.25,0.28-0.27c0.14-0.02,0.28,0.06,0.33,0.2l3.76,9.03h21.25
				c0.18,0,0.32,0.14,0.32,0.32c0,0.18-0.14,0.32-0.32,0.32h-21.46c-0.13,0-0.25-0.08-0.3-0.2l-3.41-8.19l-2.88,18.08
				C387.93,169.78,387.79,169.89,387.63,169.9C387.64,169.9,387.63,169.9,387.63,169.9z"/>
		</g>
	</g>
	<g>
		<g>
			<ellipse class="st12" cx="473.45" cy="95.57" rx="25.19" ry="17.38"/>
		</g>
		<g>
			<polygon class="st12" points="473.45,109.31 495.53,125.98 485.54,106.98 			"/>
		</g>
	</g>
	<g>
		<g>
			<path class="st5" d="M445.12,164.23c0,0-9.2-3.38-12.51-8.83c-3.31-5.46,3.72-12.43,3.72-12.43l9.98,2.98l5.23,11.63
				L445.12,164.23z"/>
		</g>
		<g>
			<path class="st7" d="M408.35,162.92l28.93,8.65c1.11,0.33,2.17-0.33,2.37-1.48l7.99-46.13c0.2-1.15-0.54-2.35-1.65-2.68
				l-28.93-8.65c-1.11-0.33-2.17,0.33-2.37,1.48l-7.99,46.13C406.51,161.39,407.24,162.59,408.35,162.92z"/>
		</g>
		<g>
			<path class="st4" d="M414.88,146.44c0.21,1.16,7.16,3.24,7.96,2.38c0.81-0.85,4.56-3.14,7.24-2.54c0.66,0.14,1.16,0.34,1.56,0.57
				c0.57,0.35,0.91,0.75,1.14,1.13c0.25,0.44,0.37,0.85,0.51,1.11c0.35,0.66,2.95,0.77,4.8-1.4c0.29-0.35,0.65-0.92,1-1.65
				c0.29-0.57,0.56-1.25,0.8-2.01c0.46-1.46,0.77-3.18,0.68-4.91c-0.13-2.74-1.28-5.5-4.46-7.25c-0.65-0.36-1.39-0.68-2.22-0.95
				c-10.42-3.34-13.69,5-13.69,5c-0.39,0.22-0.92,0.89-1.5,1.8c0,0,0.93,3.26-0.12,4.14c-0.61,0.51-1.42,0.16-1.99-0.23
				C415.57,143.81,414.79,145.91,414.88,146.44z M425.24,132.38c7.18-0.53-1.83,7.95-3.93,6.12
				C419.23,136.68,425.24,132.38,425.24,132.38z"/>
		</g>
		<g>
			<path class="st5" d="M453.84,155.66c0,0-4.97-14.52-8.99-16.03c-4.02-1.52-13.56,0.51-12.46,3.06c1.1,2.55,7.87,3.58,7.87,3.58
				s-2.49,7.09,5.53,10.16C453.81,159.49,453.84,155.66,453.84,155.66z"/>
		</g>
		<g>
			<path d="M444.16,155.39c-0.04,0-0.07-0.01-0.11-0.02c-0.06-0.02-5.63-2.07-4.11-9.18c0.04-0.17,0.21-0.28,0.38-0.25
				c0.17,0.04,0.28,0.21,0.25,0.38c-1.4,6.54,3.49,8.37,3.69,8.44c0.17,0.06,0.25,0.24,0.2,0.41
				C444.42,155.31,444.29,155.39,444.16,155.39z"/>
		</g>
		<g>
			<path class="st13" d="M497.04,327.92l3.53,10.18c0,0-4.88,2.35-5.38,4.91c-0.52,2.62,2.29,4.35,2.29,4.35l-8.74,10.74l27.16-3.37
				l-2.49-26.8H497.04z"/>
		</g>
		<g>
			<polygon class="st5" points="532.14,338.07 532.14,354.72 508.69,352.93 508.69,337.02 			"/>
		</g>
		<g>
			<path class="st11" d="M492.4,202.51c0,0-24.82,49.27-25.01,65.5c-0.19,16.23,33.18,70.08,33.18,70.08s9.07,3.73,22.39,3.3
				c13.32-0.43,15.42-1.96,15.42-1.96s-2.28-115.49-7.61-126.3C525.44,202.32,492.4,202.51,492.4,202.51z"/>
		</g>
		<g>
			<path class="st6" d="M511.54,149.96c0,0,11.8-0.4,17.89,5.12c6.09,5.52,2.09,53.67,2.09,53.67s-15.89,1.33-27.26,0
				s-16.51-3.14-16.51-3.14s-1.33-44.26,1.71-49.58C492.51,150.7,511.54,149.96,511.54,149.96z"/>
		</g>
		<g>
			<path class="st14" d="M514.5,149.79c0,0-8.23,121.04-7.55,122.42c0.68,1.38,16.24,3.79,21.74,2.75c5.49-1.03,8.53-2.75,9.41-3.79
				c0.88-1.03-0.57-80.19-0.57-80.19l0.86-32.51C538.38,158.48,526.49,149.74,514.5,149.79z"/>
		</g>
		<g>
			<path class="st15" d="M526.75,179.65h-10.43c-0.89,0-1.61-0.72-1.61-1.61v-1.8c0-0.89,0.72-1.61,1.61-1.61h10.43
				c0.89,0,1.61,0.72,1.61,1.61v1.8C528.37,178.92,527.64,179.65,526.75,179.65z"/>
		</g>
		<g>
			<path class="st16" d="M492.25,153.69c0,0-5.72,3.25-11.46,5.15c-5.36,1.78-9.4,1.92-9.4,1.92s-0.02,6.88,0.21,14.06
				c0.23,7.4-0.75,12.62-0.75,12.62s17.86,3.84,22-1.86C496.98,179.88,492.25,153.69,492.25,153.69z"/>
		</g>
		<g>
			<path class="st8" d="M500.57,338.09c-0.17,0-0.31-0.13-0.32-0.3c-2.13-36.61-1.46-95.41-1.41-99.17l-11.54-6.83
				c-0.15-0.09-0.2-0.29-0.11-0.44c0.09-0.15,0.29-0.2,0.44-0.11l11.7,6.93c0.1,0.06,0.16,0.17,0.16,0.28
				c-0.01,0.61-0.78,61.69,1.41,99.31c0.01,0.18-0.12,0.33-0.3,0.34C500.58,338.09,500.58,338.09,500.57,338.09z"/>
		</g>
		<g>
			<path class="st8" d="M499.05,278.34c-0.03,0-0.07-0.01-0.1-0.02c-1.19-0.39-11.6-3.93-12.26-7.01c-0.08-0.39-0.05-0.97,0.55-1.53
				c0.51-0.47,1.15-0.67,1.9-0.6c3.92,0.37,9.91,8.3,10.16,8.64c0.08,0.11,0.09,0.27,0,0.38
				C499.25,278.29,499.16,278.34,499.05,278.34z M488.86,269.82c-0.47,0-0.86,0.15-1.18,0.45c-0.32,0.29-0.43,0.58-0.36,0.92
				c0.44,2.08,7.21,4.89,10.81,6.18c-1.67-2.08-6.12-7.26-9.04-7.53C489.01,269.82,488.93,269.82,488.86,269.82z"/>
		</g>
		<g>
			<g>
				<path class="st7" d="M530.08,371.71c1.63-0.06,2.93-1.48,2.95-3.22c0.09-6.89,1.13-22.33-0.13-22.34
					c-1.6-0.02-17.76,4.17-17.76,4.17s-0.34-9.55-7-7.92c-5.12,1.25-11.1,7.25-13.61,9.97c-0.8,0.86-1.8,1.46-2.91,1.72
					c-4.76,1.13-17.88,4.86-18.15,11.87c-0.34,8.57,3.11,7.63,4.72,7.65C479.57,373.62,518.95,372.13,530.08,371.71z"/>
			</g>
		</g>
		<g>
			<path class="st4" d="M507.33,353.25c-0.13,0-0.25-0.08-0.3-0.21c-0.06-0.17,0.02-0.35,0.19-0.41l7.68-2.81
				c0.16-0.06,0.35,0.02,0.41,0.19c0.06,0.17-0.02,0.35-0.19,0.41l-7.68,2.81C507.41,353.24,507.37,353.25,507.33,353.25z"/>
		</g>
		<g>
			<path class="st14" d="M455.1,147.46l-12.79,19.59c0,0,7.76,12.84,21.35,18.23c13.18,5.23,20.1,4.07,20.1,4.07l-12.18,62.16
				c0,0,18.23-42.86,18.63-45.21c0.4-2.35,12.92-55.54,12.92-55.54s-2.95-0.42-9.45,2.07c-6.49,2.5-13.48,4.17-19.48,4.17
				C468.21,157.01,455.1,147.46,455.1,147.46z"/>
		</g>
		<g>
			<path class="st7" d="M474.33,166.52c-0.05,0-0.1,0-0.16-0.01c-0.49-0.05-0.87-0.28-1.14-0.7c-1.36-2.09,0.78-8.57,0.87-8.84
				c0.04-0.13,0.17-0.22,0.3-0.22c0.14,0,0.26,0.09,0.31,0.23c0.23,0.75,2.24,7.33,0.82,9.08
				C475.08,166.36,474.73,166.52,474.33,166.52z M474.19,158.18c-0.64,2.21-1.46,5.98-0.63,7.28c0.16,0.25,0.38,0.38,0.66,0.41
				c0.26,0.02,0.45-0.05,0.59-0.22C475.7,164.57,474.84,160.53,474.19,158.18z"/>
		</g>
		<g>
			<path class="st7" d="M517.87,161.05c-0.03,0-0.07,0-0.1-0.01c-0.23-0.05-0.37-0.29-0.32-0.52c0.9-3.82,0.75-6.82-0.45-8.69
				c-0.92-1.44-2.13-1.7-2.14-1.7c-0.23-0.05-0.38-0.27-0.34-0.5c0.05-0.23,0.27-0.39,0.5-0.34c0.06,0.01,1.58,0.33,2.7,2.08
				c1.34,2.09,1.53,5.24,0.56,9.35C518.24,160.92,518.07,161.05,517.87,161.05z"/>
		</g>
		<g>
			<path class="st7" d="M497.04,170.87c-0.23,0-0.43-0.19-0.43-0.42c-0.01-0.67-0.09-16.37,5.8-20.66c0.19-0.14,0.46-0.1,0.6,0.09
				c0.14,0.19,0.1,0.46-0.09,0.6c-5.54,4.03-5.45,19.8-5.45,19.96C497.47,170.68,497.28,170.87,497.04,170.87
				C497.04,170.87,497.04,170.87,497.04,170.87z"/>
		</g>
		<g>
			<path class="st7" d="M517.04,175.16c-0.06,0-0.12-0.01-0.17-0.04c-0.22-0.09-0.32-0.35-0.22-0.56c0.04-0.1,4.19-9.68,1.12-13
				c-0.38-0.41-0.84-0.59-1.38-0.54c-2.79,0.24-7.13,6.1-8.57,8.34c-0.13,0.2-0.4,0.25-0.59,0.13c-0.2-0.13-0.26-0.39-0.13-0.59
				c0.22-0.34,5.44-8.39,9.21-8.73c0.81-0.07,1.52,0.2,2.09,0.82c3.44,3.72-0.79,13.51-0.97,13.92
				C517.37,175.06,517.21,175.16,517.04,175.16z"/>
		</g>
		<g>
			<path class="st7" d="M499.59,171.28c0,1.41-1.14,2.56-2.56,2.56s-2.56-1.14-2.56-2.56c0-1.41,1.14-2.56,2.56-2.56
				S499.59,169.87,499.59,171.28z"/>
		</g>
		<g>
			<circle class="st11" cx="497.04" cy="171.28" r="1"/>
		</g>
		<g>
			<path class="st17" d="M509.38,169.98h-3.31c-0.24,0-0.43-0.19-0.43-0.43c0-0.24,0.19-0.43,0.43-0.43h3.31
				c0.24,0,0.43,0.19,0.43,0.43C509.81,169.79,509.61,169.98,509.38,169.98z"/>
		</g>
		<g>
			<path class="st17" d="M517.53,176.57c-0.14,0-0.28-0.07-0.37-0.2l-1.73-2.82c-0.12-0.2-0.06-0.47,0.14-0.59
				c0.2-0.12,0.46-0.06,0.59,0.14l1.73,2.82c0.12,0.2,0.06,0.47-0.14,0.59C517.69,176.55,517.61,176.57,517.53,176.57z"/>
		</g>
		<g>
			<path d="M501.35,126.39c0,0-1.08-7.08,3.46-8.07c10.08-2.2,15.27,9.01,15.27,9.01s5.11,0.33,3.49,5.94
				c-1.74,6-6.94,6.72-6.94,6.72L501.35,126.39z"/>
		</g>
		<g>
			<g>
				<path class="st5" d="M514.8,141.78l-0.15,8.78c0,0-1.63,2.5-6.77,2.83c-3.83,0.24-5.16-0.64-5.16-0.64l0.61-4.44l0.6-4.33
					l9.31-1.88L514.8,141.78z"/>
			</g>
		</g>
		<g>
			<g>
				<path d="M513.24,142.1c-0.03,0.24-0.12,0.52-0.27,0.84c-2.04,4.35-7.43,5.21-9.65,5.36l0.6-4.33L513.24,142.1z"/>
			</g>
		</g>
		<g>
			<g>
				<path class="st5" d="M502.32,123.92c0,0-4.8,10.93-3.09,17.08c1.71,6.15,7.31,5.19,10.67,4.01c3.35-1.18,4.91-3.23,4.91-3.23
					s3.13,1.07,5.23-1.84c2.1-2.91,0.82-6.25-0.97-7.02c-1.79-0.77-3.91,0.52-3.91,0.52l1.67-3.18
					C516.82,130.26,509.85,114.09,502.32,123.92z"/>
			</g>
		</g>
		<g>
			<path d="M515.4,138.16c-0.1,0-0.2-0.05-0.26-0.14c-0.1-0.15-0.07-0.35,0.08-0.45l4.01-2.78c0.14-0.1,0.34-0.07,0.45,0.08
				c0.1,0.15,0.07,0.35-0.08,0.45l-4.01,2.78C515.52,138.14,515.46,138.16,515.4,138.16z"/>
		</g>
		<g>
			<path d="M519,138.17c-0.03,0-0.06,0-0.09-0.01l-2.59-0.72c-0.17-0.05-0.27-0.22-0.22-0.4c0.05-0.17,0.22-0.27,0.4-0.22l2.59,0.72
				c0.17,0.05,0.27,0.22,0.22,0.4C519.28,138.08,519.15,138.17,519,138.17z"/>
		</g>
		<g>
			<path d="M509.06,129.57c-0.11,0-0.22-0.06-0.28-0.17c-0.9-1.62-2.41-1.12-2.47-1.09c-0.17,0.06-0.35-0.03-0.41-0.2
				c-0.06-0.17,0.03-0.35,0.19-0.41c0.71-0.26,2.31-0.3,3.25,1.39c0.09,0.16,0.03,0.35-0.12,0.44
				C509.17,129.56,509.11,129.57,509.06,129.57z"/>
		</g>
		<g>
			<path d="M501.09,128.09c-0.09,0-0.19-0.04-0.25-0.12c-0.11-0.14-0.09-0.34,0.05-0.45c1.31-1.04,2.65-0.25,2.71-0.21
				c0.15,0.09,0.2,0.29,0.11,0.44c-0.09,0.15-0.29,0.2-0.44,0.11c-0.04-0.03-1.02-0.6-1.97,0.16
				C501.23,128.07,501.16,128.09,501.09,128.09z"/>
		</g>
		<g>
			<path d="M502.23,136.77c-0.14,0-0.27-0.09-0.31-0.23c-1.12-3.82,1.13-5.53,1.22-5.6c0.14-0.11,0.34-0.07,0.45,0.07
				c0.11,0.14,0.08,0.34-0.07,0.45c-0.08,0.06-1.98,1.53-0.99,4.9c0.05,0.17-0.05,0.35-0.22,0.4
				C502.29,136.76,502.26,136.77,502.23,136.77z"/>
		</g>
		<g>
			<path d="M501.05,132.31c-0.03,0-0.06,0-0.09-0.01c-0.17-0.05-0.27-0.23-0.22-0.4l0.58-2c0.05-0.17,0.23-0.27,0.4-0.22
				c0.17,0.05,0.27,0.23,0.22,0.4l-0.58,2C501.32,132.22,501.19,132.31,501.05,132.31z"/>
		</g>
		<g>
			<path d="M506.61,132.52c-0.03,0-0.06,0-0.09-0.01c-0.17-0.05-0.27-0.23-0.22-0.4l0.58-2c0.05-0.17,0.22-0.27,0.4-0.22
				c0.17,0.05,0.27,0.23,0.22,0.4l-0.58,2C506.88,132.43,506.75,132.52,506.61,132.52z"/>
		</g>
		<g>
			<path d="M501.35,126.39c0,0,0.98-1.75,3.18-1.73c2.19,0.02,3.44,1.59,3.44,1.59s-1.03,3.67,1.92,5.69
				c2.95,2.01,5.26,1.5,5.26,1.5l2.17-0.73l1.64-3.13l-6.13-6.85l-6.52-3.59l-3.88,1.26L501.35,126.39z"/>
		</g>
		<g>
			<path class="st5" d="M505.98,193.61c0,0-8.25-2.99-14.65-0.92c-2.3,0.74-5.9,0.97-6.05,1.9c-0.28,1.76,3,1.57,4.99,2.88
				c1.99,1.31-4.81,4.37-7.87,4.45c-3.06,0.08-7.82-2.14-8.09-0.16c-0.18,1.34,1.8,3.68,4.35,4.5c2.55,0.81,9.19,0.04,9.19,0.04
				L505.98,193.61z"/>
		</g>
		<g>
			<path class="st5" d="M504.55,208.03c0,0-14.68,5.88-19.66,5.34c-4.98-0.54-10.32-4.96-9.86-7.59c0.46-2.63,3.99-0.47,3.99-0.47
				l9.5,0.63l12.88-10.61l3.38,3.17L504.55,208.03z"/>
		</g>
		<g>
			<path d="M503.92,141.07c-1,0-1.73-1.14-1.76-1.19c-0.05-0.08-0.06-0.18-0.03-0.27c0.03-0.09,0.1-0.16,0.19-0.2l3.7-1.46
				c0.12-0.05,0.25-0.02,0.34,0.07c0.09,0.09,0.12,0.22,0.07,0.34c-0.03,0.08-0.8,2.06-1.94,2.58
				C504.29,141.03,504.1,141.07,503.92,141.07z M502.94,139.85c0.28,0.32,0.78,0.74,1.28,0.51c0.5-0.23,0.97-0.93,1.28-1.52
				L502.94,139.85z"/>
		</g>
		<g>
			<path d="M484.08,206.79c-4.6,0-7.86-1.88-8.04-1.99c-0.15-0.09-0.2-0.29-0.11-0.44c0.09-0.15,0.29-0.2,0.44-0.11
				c0.05,0.03,5.51,3.17,12.1,1.28c0.17-0.05,0.35,0.05,0.4,0.22c0.05,0.17-0.05,0.35-0.22,0.4
				C487.03,206.62,485.49,206.79,484.08,206.79z"/>
		</g>
		<g>
			<path d="M485.76,210.96c-3.54,0-6.95-0.98-7.15-1.04c-0.17-0.05-0.27-0.23-0.22-0.4c0.05-0.17,0.23-0.27,0.4-0.22
				c0.07,0.02,6.99,2.02,11.21,0.34c0.16-0.06,0.35,0.02,0.42,0.18c0.07,0.16-0.02,0.35-0.18,0.42
				C488.88,210.77,487.31,210.96,485.76,210.96z"/>
		</g>
		<g>
			<path class="st18" d="M506.19,153.59c-2.12,0-3.48-0.5-3.59-0.54c-0.17-0.06-0.25-0.25-0.19-0.41c0.06-0.17,0.25-0.25,0.41-0.19
				c0.05,0.02,5.41,1.97,11.65-2.15c0.15-0.1,0.35-0.06,0.45,0.09c0.1,0.15,0.06,0.35-0.09,0.44
				C511.49,153.04,508.42,153.59,506.19,153.59z"/>
		</g>
		<g>
			<path class="st14" d="M538.38,158.48c0,0,22.53,21.41,17.78,39.75c-6.28,24.26-55.07,13.32-55.07,13.32l1.58-21.76l29.47-5.63
				L538.38,158.48z"/>
		</g>
		<g>
			<path class="st7" d="M536.85,184.98c-3.06,0-6.59-0.37-6.81-0.39c-0.14-0.02-0.26-0.12-0.28-0.26c-0.02-0.14,0.05-0.28,0.17-0.34
				c4.34-2.15,9.73-1.66,11.1-0.69c0.34,0.24,0.38,0.49,0.36,0.65c-0.03,0.26-0.25,0.47-0.64,0.62
				C539.95,184.88,538.47,184.98,536.85,184.98z M531.34,184.06c2.38,0.2,7.51,0.55,9.18-0.1c0.11-0.04,0.17-0.08,0.2-0.1
				C540.23,183.33,535.76,182.37,531.34,184.06z"/>
		</g>
	</g>
	<g>
		<path class="st12" d="M427.29,64.79v2.88H175.24v-2.88c0-4.82,3.91-8.72,8.72-8.72h234.62C423.39,56.07,427.29,59.97,427.29,64.79
			z"/>
	</g>
	<g>
		<path class="st4" d="M412.93,64.32c-0.09,0-0.18-0.04-0.25-0.12c-0.11-0.14-0.09-0.34,0.04-0.45l6.12-5.09
			c0.13-0.11,0.34-0.1,0.45,0.04c0.11,0.14,0.09,0.34-0.04,0.45l-6.12,5.09C413.07,64.3,413,64.32,412.93,64.32z"/>
	</g>
	<g>
		<path class="st4" d="M419.05,64.32c-0.07,0-0.15-0.02-0.21-0.07l-6.12-5.09c-0.14-0.11-0.16-0.32-0.04-0.45
			c0.11-0.14,0.32-0.15,0.45-0.04l6.12,5.09c0.14,0.11,0.16,0.32,0.04,0.45C419.23,64.28,419.14,64.32,419.05,64.32z"/>
	</g>
	<g>
		<path class="st4" d="M391.53,62.19h-9c-0.18,0-0.32-0.14-0.32-0.32c0-0.18,0.14-0.32,0.32-0.32h9c0.18,0,0.32,0.14,0.32,0.32
			C391.85,62.05,391.71,62.19,391.53,62.19z"/>
	</g>
	<g>
		<path class="st4" d="M406.88,64.32h-9.67c-0.18,0-0.32-0.14-0.32-0.32v-5.09c0-0.18,0.14-0.32,0.32-0.32h9.67
			c0.18,0,0.32,0.14,0.32,0.32V64C407.2,64.18,407.06,64.32,406.88,64.32z M397.54,63.68h9.02v-4.45h-9.02V63.68z"/>
	</g>
	<g>
		<circle class="st19" cx="183.76" cy="64" r="31.56"/>
	</g>
	<g>
		<circle class="st20" cx="180.11" cy="64" r="31.56"/>
	</g>
	<g>
		<path class="st19" d="M304.24,363.39v-75.02c0-3.68,2.98-6.66,6.66-6.66h147.82c3.68,0,6.66,2.98,6.66,6.66v75.02
			c0,3.68-2.98,6.66-6.66,6.66H310.9C307.22,370.05,304.24,367.07,304.24,363.39z"/>
	</g>
	<g>
		<g>
			<path class="st20" d="M458.59,363.39v-75.02c0-3.68-2.98-6.66-6.66-6.66H304.11c-3.68,0-6.66,2.98-6.66,6.66v75.02
				c0,3.68,2.98,6.66,6.66,6.66h147.82C455.61,370.05,458.59,367.07,458.59,363.39z"/>
		</g>
		<g>
			<g>
				<g>
					<circle class="st21" cx="437.1" cy="307.27" r="14.93"/>
				</g>
				<g>
					<path class="st22" d="M423.46,314.03c-0.26,0-0.51-0.15-0.63-0.4c-0.16-0.35-0.02-0.76,0.33-0.92l26.98-12.74
						c0.35-0.16,0.76-0.02,0.92,0.33c0.16,0.35,0.02,0.76-0.33,0.92l-26.98,12.74C423.66,314.01,423.56,314.03,423.46,314.03z"/>
				</g>
			</g>
			<g>
				<g>
					<circle class="st21" cx="437.1" cy="344.49" r="14.93"/>
				</g>
				<g>
					<path class="st22" d="M423.46,351.26c-0.26,0-0.51-0.15-0.63-0.4c-0.16-0.35-0.02-0.76,0.33-0.92l26.98-12.74
						c0.35-0.16,0.76-0.02,0.92,0.33c0.16,0.35,0.02,0.76-0.33,0.92l-26.98,12.74C423.66,351.24,423.56,351.26,423.46,351.26z"/>
				</g>
			</g>
		</g>
		<g>
			<g>
				<g>
					<circle class="st21" cx="397.36" cy="307.27" r="14.93"/>
				</g>
				<g>
					<path class="st22" d="M383.72,314.03c-0.26,0-0.51-0.15-0.63-0.4c-0.16-0.35-0.02-0.76,0.33-0.92l26.98-12.74
						c0.35-0.16,0.76-0.02,0.92,0.33c0.16,0.35,0.02,0.76-0.33,0.92l-26.98,12.74C383.92,314.01,383.82,314.03,383.72,314.03z"/>
				</g>
			</g>
			<g>
				<g>
					<circle class="st21" cx="397.36" cy="344.49" r="14.93"/>
				</g>
				<g>
					<path class="st22" d="M383.72,351.26c-0.26,0-0.51-0.15-0.63-0.4c-0.16-0.35-0.02-0.76,0.33-0.92l26.98-12.74
						c0.35-0.16,0.76-0.02,0.92,0.33c0.16,0.35,0.02,0.76-0.33,0.92l-26.98,12.74C383.92,351.24,383.82,351.26,383.72,351.26z"/>
				</g>
			</g>
		</g>
		<g>
			<g>
				<g>
					
						<ellipse transform="matrix(0.3862 -0.9224 0.9224 0.3862 -63.9217 518.4791)" class="st21" cx="357.62" cy="307.27" rx="14.93" ry="14.93"/>
				</g>
				<g>
					<path class="st22" d="M343.98,314.03c-0.26,0-0.51-0.15-0.63-0.4c-0.16-0.35-0.02-0.76,0.33-0.92l26.98-12.74
						c0.34-0.16,0.76-0.02,0.92,0.33c0.16,0.35,0.02,0.76-0.33,0.92l-26.98,12.74C344.18,314.01,344.08,314.03,343.98,314.03z"/>
				</g>
			</g>
			<g>
				<g>
					
						<ellipse transform="matrix(0.3862 -0.9224 0.9224 0.3862 -98.259 541.3282)" class="st21" cx="357.62" cy="344.49" rx="14.93" ry="14.93"/>
				</g>
				<g>
					<path class="st22" d="M343.98,351.26c-0.26,0-0.51-0.15-0.63-0.4c-0.16-0.35-0.02-0.76,0.33-0.92l26.98-12.74
						c0.34-0.16,0.76-0.02,0.92,0.33c0.16,0.35,0.02,0.76-0.33,0.92l-26.98,12.74C344.18,351.24,344.08,351.26,343.98,351.26z"/>
				</g>
			</g>
		</g>
		<g>
			<g>
				<g>
					<circle class="st21" cx="317.88" cy="307.27" r="14.93"/>
				</g>
				<g>
					<path class="st22" d="M304.24,314.03c-0.26,0-0.51-0.15-0.63-0.4c-0.16-0.35-0.02-0.76,0.33-0.92l26.98-12.74
						c0.34-0.16,0.76-0.02,0.92,0.33c0.16,0.35,0.02,0.76-0.33,0.92l-26.98,12.74C304.44,314.01,304.34,314.03,304.24,314.03z"/>
				</g>
			</g>
			<g>
				<g>
					<circle class="st21" cx="317.88" cy="344.49" r="14.93"/>
				</g>
				<g>
					<path class="st22" d="M304.24,351.26c-0.26,0-0.51-0.15-0.63-0.4c-0.16-0.35-0.02-0.76,0.33-0.92l26.98-12.74
						c0.34-0.16,0.76-0.02,0.92,0.33c0.16,0.35,0.02,0.76-0.33,0.92l-26.98,12.74C304.44,351.24,304.34,351.26,304.24,351.26z"/>
				</g>
			</g>
		</g>
	</g>
	<g>
		<g>
			<path class="st9" d="M234.55,216.36h-28.69c-3.04,0-5.5-2.46-5.5-5.5v-28.69c0-3.04,2.46-5.5,5.5-5.5h28.69
				c3.04,0,5.5,2.46,5.5,5.5v28.69C240.05,213.89,237.59,216.36,234.55,216.36z"/>
		</g>
		<g>
			<path class="st4" d="M211.77,195.85c0,0-4.38-8.15-1.38-9.91c3-1.77,9.53,0,9.53,0s5.18-3.16,9.18-1.6
				c4,1.56-0.67,11.51-0.67,11.51s4.32,12.83,1.87,13.09c-2.44,0.26-10.39-9.87-10.39-9.87s-7.2,11.58-9.53,9.87
				C208.06,207.23,211.77,195.85,211.77,195.85z"/>
		</g>
	</g>
	<g>
		<path class="st23" d="M178.64,74.24c7.47,0,13.53-6.06,13.53-13.53c0-7.47-6.06-13.53-13.53-13.53c-7.47,0-13.53,6.06-13.53,13.53
			C165.11,68.19,171.17,74.24,178.64,74.24z"/>
		<path class="st24" d="M183.14,55.42c-0.59-0.59-1.29-1.06-2.06-1.38c-0.77-0.32-1.6-0.48-2.44-0.48c-0.84,0-1.66,0.16-2.44,0.48
			c-0.77,0.32-1.47,0.79-2.06,1.38 M188.36,70.44l6.75,6.75"/>
	</g>
</g>
</svg>
